# This file uses centimeters as units for non-parametric coordinates.

mtllib BuildingV2.mtl
g default
v -1.010099 2.148078 -0.233268
v -1.010099 1.630231 -0.751115
v -1.010099 1.630231 -0.233268
v -1.010099 1.630231 -0.751115
v -1.010099 2.148078 -0.233268
v -1.010099 2.148078 -0.751115
v -1.010099 2.148078 0.766732
v -1.010099 1.630231 0.248885
v -1.010099 1.630231 0.766732
v -1.010099 1.630231 0.248885
v -1.010099 2.148078 0.766732
v -1.010099 2.148078 0.248885
v -1.010099 1.148078 -0.233268
v -1.010099 0.630231 -0.751115
v -1.010099 0.630231 -0.233268
v -1.010099 0.630231 -0.751115
v -1.010099 1.148078 -0.233268
v -1.010099 1.148078 -0.751115
v -1.010099 1.148078 0.766732
v -1.010099 0.630231 0.248885
v -1.010099 0.630231 0.766732
v -1.010099 0.630231 0.248885
v -1.010099 1.148078 0.766732
v -1.010099 1.148078 0.248885
v -1.010099 3.148078 -0.233268
v -1.010099 2.630231 -0.751115
v -1.010099 2.630231 -0.233268
v -1.010099 2.630231 -0.751115
v -1.010099 3.148078 -0.233268
v -1.010099 3.148078 -0.751115
v -1.010099 3.148078 0.766732
v -1.010099 2.630231 0.248885
v -1.010099 2.630231 0.766732
v -1.010099 2.630231 0.248885
v -1.010099 3.148078 0.766732
v -1.010099 3.148078 0.248885
v -0.233268 2.148078 1.010099
v -0.751115 1.630231 1.010099
v -0.233268 1.630231 1.010099
v -0.751115 1.630231 1.010099
v -0.233268 2.148078 1.010099
v -0.751115 2.148078 1.010099
v 0.766732 2.148078 1.010099
v 0.248885 1.630231 1.010099
v 0.766732 1.630231 1.010099
v 0.248885 1.630231 1.010099
v 0.766732 2.148078 1.010099
v 0.248885 2.148078 1.010099
v -0.233268 1.148078 1.010099
v -0.751115 0.630231 1.010099
v -0.233268 0.630231 1.010099
v -0.751115 0.630231 1.010099
v -0.233268 1.148078 1.010099
v -0.751115 1.148078 1.010099
v 0.766732 1.148078 1.010099
v 0.248885 0.630231 1.010099
v 0.766732 0.630231 1.010099
v 0.248885 0.630231 1.010099
v 0.766732 1.148078 1.010099
v 0.248885 1.148078 1.010099
v -0.233268 3.148078 1.010099
v -0.751115 2.630231 1.010099
v -0.233268 2.630231 1.010099
v -0.751115 2.630231 1.010099
v -0.233268 3.148078 1.010099
v -0.751115 3.148078 1.010099
v 0.766732 3.148078 1.010099
v 0.248885 2.630231 1.010099
v 0.766732 2.630231 1.010099
v 0.248885 2.630231 1.010099
v 0.766732 3.148078 1.010099
v 0.248885 3.148078 1.010099
v 1.010099 2.148078 0.233268
v 1.010099 1.630231 0.751115
v 1.010099 1.630231 0.233268
v 1.010099 1.630231 0.751115
v 1.010099 2.148078 0.233268
v 1.010099 2.148078 0.751115
v 1.010099 2.148078 -0.766732
v 1.010099 1.630231 -0.248885
v 1.010099 1.630231 -0.766732
v 1.010099 1.630231 -0.248885
v 1.010099 2.148078 -0.766732
v 1.010099 2.148078 -0.248885
v 1.010099 1.148078 0.233268
v 1.010099 0.630231 0.751115
v 1.010099 0.630231 0.233268
v 1.010099 0.630231 0.751115
v 1.010099 1.148078 0.233268
v 1.010099 1.148078 0.751115
v 1.010099 1.148078 -0.766732
v 1.010099 0.630231 -0.248885
v 1.010099 0.630231 -0.766732
v 1.010099 0.630231 -0.248885
v 1.010099 1.148078 -0.766732
v 1.010099 1.148078 -0.248885
v 1.010099 3.148078 0.233268
v 1.010099 2.630231 0.751115
v 1.010099 2.630231 0.233268
v 1.010099 2.630231 0.751115
v 1.010099 3.148078 0.233268
v 1.010099 3.148078 0.751115
v 1.010099 3.148078 -0.766732
v 1.010099 2.630231 -0.248885
v 1.010099 2.630231 -0.766732
v 1.010099 2.630231 -0.248885
v 1.010099 3.148078 -0.766732
v 1.010099 3.148078 -0.248885
v 0.233268 2.148078 -1.010099
v 0.751115 1.630231 -1.010099
v 0.233268 1.630231 -1.010099
v 0.751115 1.630231 -1.010099
v 0.233268 2.148078 -1.010099
v 0.751115 2.148078 -1.010099
v -0.766732 2.148078 -1.010099
v -0.248885 1.630231 -1.010099
v -0.766732 1.630231 -1.010099
v -0.248885 1.630231 -1.010099
v -0.766732 2.148078 -1.010099
v -0.248885 2.148078 -1.010099
v 0.233268 1.148078 -1.010099
v 0.751115 0.630231 -1.010099
v 0.233268 0.630231 -1.010099
v 0.751115 0.630231 -1.010099
v 0.233268 1.148078 -1.010099
v 0.751115 1.148078 -1.010099
v -0.766732 1.148078 -1.010099
v -0.248885 0.630231 -1.010099
v -0.766732 0.630231 -1.010099
v -0.248885 0.630231 -1.010099
v -0.766732 1.148078 -1.010099
v -0.248885 1.148078 -1.010099
v 0.233268 3.148078 -1.010099
v 0.751115 2.630231 -1.010099
v 0.233268 2.630231 -1.010099
v 0.751115 2.630231 -1.010099
v 0.233268 3.148078 -1.010099
v 0.751115 3.148078 -1.010099
v -0.766732 3.148078 -1.010099
v -0.248885 2.630231 -1.010099
v -0.766732 2.630231 -1.010099
v -0.248885 2.630231 -1.010099
v -0.766732 3.148078 -1.010099
v -0.248885 3.148078 -1.010099
v -1.000000 -0.081571 1.000000
v 1.000000 -0.081571 1.000000
v -1.000000 3.500000 1.000000
v 1.000000 3.500000 1.000000
v -1.000000 3.500000 -1.000000
v 1.000000 3.500000 -1.000000
v -1.000000 -0.081571 -1.000000
v 1.000000 -0.081571 -1.000000
v -1.000000 3.499573 -1.000000
v -1.000000 3.499573 1.000000
v 1.000000 3.499573 1.000000
v 1.000000 3.499573 -1.000000
v 0.000000 5.620893 0.000000
vt 0.000000 1.000000
vt 1.000000 0.000000
vt 1.000000 1.000000
vt 0.000000 1.000000
vt 1.000000 0.000000
vt 1.000000 1.000000
vt 0.000000 1.000000
vt 1.000000 0.000000
vt 1.000000 1.000000
vt 0.000000 1.000000
vt 1.000000 0.000000
vt 1.000000 1.000000
vt 0.000000 1.000000
vt 1.000000 0.000000
vt 1.000000 1.000000
vt 0.000000 1.000000
vt 1.000000 0.000000
vt 1.000000 1.000000
vt 0.000000 1.000000
vt 1.000000 0.000000
vt 1.000000 1.000000
vt 0.000000 1.000000
vt 1.000000 0.000000
vt 1.000000 1.000000
vt 0.000000 1.000000
vt 1.000000 0.000000
vt 1.000000 1.000000
vt 0.000000 1.000000
vt 1.000000 0.000000
vt 1.000000 1.000000
vt 0.000000 1.000000
vt 1.000000 0.000000
vt 1.000000 1.000000
vt 0.000000 1.000000
vt 1.000000 0.000000
vt 1.000000 1.000000
vt 0.000000 1.000000
vt 1.000000 0.000000
vt 1.000000 1.000000
vt 0.000000 1.000000
vt 1.000000 0.000000
vt 1.000000 1.000000
vt 0.000000 1.000000
vt 1.000000 0.000000
vt 1.000000 1.000000
vt 0.000000 1.000000
vt 1.000000 0.000000
vt 1.000000 1.000000
vt 0.000000 1.000000
vt 1.000000 0.000000
vt 1.000000 1.000000
vt 0.000000 1.000000
vt 1.000000 0.000000
vt 1.000000 1.000000
vt 0.000000 1.000000
vt 1.000000 0.000000
vt 1.000000 1.000000
vt 0.000000 1.000000
vt 1.000000 0.000000
vt 1.000000 1.000000
vt 0.000000 1.000000
vt 1.000000 0.000000
vt 1.000000 1.000000
vt 0.000000 1.000000
vt 1.000000 0.000000
vt 1.000000 1.000000
vt 0.000000 1.000000
vt 1.000000 0.000000
vt 1.000000 1.000000
vt 0.000000 1.000000
vt 1.000000 0.000000
vt 1.000000 1.000000
vt 0.000000 1.000000
vt 1.000000 0.000000
vt 1.000000 1.000000
vt 0.000000 1.000000
vt 1.000000 0.000000
vt 1.000000 1.000000
vt 0.000000 1.000000
vt 1.000000 0.000000
vt 1.000000 1.000000
vt 0.000000 1.000000
vt 1.000000 0.000000
vt 1.000000 1.000000
vt 0.000000 1.000000
vt 1.000000 0.000000
vt 1.000000 1.000000
vt 0.000000 1.000000
vt 1.000000 0.000000
vt 1.000000 1.000000
vt 0.000000 1.000000
vt 1.000000 0.000000
vt 1.000000 1.000000
vt 0.000000 1.000000
vt 1.000000 0.000000
vt 1.000000 1.000000
vt 0.000000 1.000000
vt 1.000000 0.000000
vt 1.000000 1.000000
vt 0.000000 1.000000
vt 1.000000 0.000000
vt 1.000000 1.000000
vt 0.000000 1.000000
vt 1.000000 0.000000
vt 1.000000 1.000000
vt 0.000000 1.000000
vt 1.000000 0.000000
vt 1.000000 1.000000
vt 0.000000 1.000000
vt 1.000000 0.000000
vt 1.000000 1.000000
vt 0.000000 1.000000
vt 1.000000 0.000000
vt 1.000000 1.000000
vt 0.000000 1.000000
vt 1.000000 0.000000
vt 1.000000 1.000000
vt 0.000000 1.000000
vt 1.000000 0.000000
vt 1.000000 1.000000
vt 0.000000 1.000000
vt 1.000000 0.000000
vt 1.000000 1.000000
vt 0.000000 1.000000
vt 1.000000 0.000000
vt 1.000000 1.000000
vt 0.000000 1.000000
vt 1.000000 0.000000
vt 1.000000 1.000000
vt 0.000000 1.000000
vt 1.000000 0.000000
vt 1.000000 1.000000
vt 0.000000 1.000000
vt 1.000000 0.000000
vt 1.000000 1.000000
vt 0.000000 1.000000
vt 1.000000 0.000000
vt 1.000000 1.000000
vt 0.000000 1.000000
vt 1.000000 0.000000
vt 1.000000 1.000000
vt 0.000000 1.000000
vt 1.000000 0.000000
vt 1.000000 1.000000
vt 0.375000 0.000000
vt 0.625000 0.000000
vt 0.625000 0.250000
vt 0.375000 0.250000
vt 0.375000 0.500000
vt 0.625000 0.500000
vt 0.625000 0.750000
vt 0.375000 0.750000
vt 0.625000 1.000000
vt 0.375000 1.000000
vt 0.875000 0.000000
vt 0.875000 0.250000
vt 0.125000 0.000000
vt 0.125000 0.250000
vt 0.250000 0.500000
vt 0.375000 0.500000
vt 0.500000 1.000000
vt 0.500000 0.500000
vt 0.625000 0.500000
vt 0.750000 0.500000
vn -1.000000 0.000000 0.000000
vn -1.000000 0.000000 0.000000
vn -1.000000 0.000000 0.000000
vn -1.000000 0.000000 0.000000
vn -1.000000 0.000000 0.000000
vn -1.000000 0.000000 0.000000
vn -1.000000 0.000000 0.000000
vn -1.000000 0.000000 0.000000
vn -1.000000 0.000000 0.000000
vn -1.000000 0.000000 0.000000
vn -1.000000 0.000000 0.000000
vn -1.000000 0.000000 0.000000
vn -1.000000 0.000000 0.000000
vn -1.000000 0.000000 0.000000
vn -1.000000 0.000000 0.000000
vn -1.000000 0.000000 0.000000
vn -1.000000 0.000000 0.000000
vn -1.000000 0.000000 0.000000
vn -1.000000 0.000000 0.000000
vn -1.000000 0.000000 0.000000
vn -1.000000 0.000000 0.000000
vn -1.000000 0.000000 0.000000
vn -1.000000 0.000000 0.000000
vn -1.000000 0.000000 0.000000
vn -1.000000 0.000000 0.000000
vn -1.000000 0.000000 0.000000
vn -1.000000 0.000000 0.000000
vn -1.000000 0.000000 0.000000
vn -1.000000 0.000000 0.000000
vn -1.000000 0.000000 0.000000
vn -1.000000 0.000000 0.000000
vn -1.000000 0.000000 0.000000
vn -1.000000 0.000000 0.000000
vn -1.000000 0.000000 0.000000
vn -1.000000 0.000000 0.000000
vn -1.000000 0.000000 0.000000
vn 0.000000 0.000000 1.000000
vn 0.000000 0.000000 1.000000
vn 0.000000 0.000000 1.000000
vn 0.000000 0.000000 1.000000
vn 0.000000 0.000000 1.000000
vn 0.000000 0.000000 1.000000
vn 0.000000 0.000000 1.000000
vn 0.000000 0.000000 1.000000
vn 0.000000 0.000000 1.000000
vn 0.000000 0.000000 1.000000
vn 0.000000 0.000000 1.000000
vn 0.000000 0.000000 1.000000
vn 0.000000 0.000000 1.000000
vn 0.000000 0.000000 1.000000
vn 0.000000 0.000000 1.000000
vn 0.000000 0.000000 1.000000
vn 0.000000 0.000000 1.000000
vn 0.000000 0.000000 1.000000
vn 0.000000 0.000000 1.000000
vn 0.000000 0.000000 1.000000
vn 0.000000 0.000000 1.000000
vn 0.000000 0.000000 1.000000
vn 0.000000 0.000000 1.000000
vn 0.000000 0.000000 1.000000
vn 0.000000 0.000000 1.000000
vn 0.000000 0.000000 1.000000
vn 0.000000 0.000000 1.000000
vn 0.000000 0.000000 1.000000
vn 0.000000 0.000000 1.000000
vn 0.000000 0.000000 1.000000
vn 0.000000 0.000000 1.000000
vn 0.000000 0.000000 1.000000
vn 0.000000 0.000000 1.000000
vn 0.000000 0.000000 1.000000
vn 0.000000 0.000000 1.000000
vn 0.000000 0.000000 1.000000
vn 1.000000 0.000000 0.000000
vn 1.000000 0.000000 0.000000
vn 1.000000 0.000000 0.000000
vn 1.000000 0.000000 0.000000
vn 1.000000 0.000000 0.000000
vn 1.000000 0.000000 0.000000
vn 1.000000 0.000000 0.000000
vn 1.000000 0.000000 0.000000
vn 1.000000 0.000000 0.000000
vn 1.000000 0.000000 0.000000
vn 1.000000 0.000000 0.000000
vn 1.000000 0.000000 0.000000
vn 1.000000 0.000000 0.000000
vn 1.000000 0.000000 0.000000
vn 1.000000 0.000000 0.000000
vn 1.000000 0.000000 0.000000
vn 1.000000 0.000000 0.000000
vn 1.000000 0.000000 0.000000
vn 1.000000 0.000000 0.000000
vn 1.000000 0.000000 0.000000
vn 1.000000 0.000000 0.000000
vn 1.000000 0.000000 0.000000
vn 1.000000 0.000000 0.000000
vn 1.000000 0.000000 0.000000
vn 1.000000 0.000000 0.000000
vn 1.000000 0.000000 0.000000
vn 1.000000 0.000000 0.000000
vn 1.000000 0.000000 0.000000
vn 1.000000 0.000000 0.000000
vn 1.000000 0.000000 0.000000
vn 1.000000 0.000000 0.000000
vn 1.000000 0.000000 0.000000
vn 1.000000 0.000000 0.000000
vn 1.000000 0.000000 0.000000
vn 1.000000 0.000000 0.000000
vn 1.000000 0.000000 0.000000
vn 0.000000 0.000000 -1.000000
vn 0.000000 0.000000 -1.000000
vn 0.000000 0.000000 -1.000000
vn 0.000000 0.000000 -1.000000
vn 0.000000 0.000000 -1.000000
vn 0.000000 0.000000 -1.000000
vn 0.000000 0.000000 -1.000000
vn 0.000000 0.000000 -1.000000
vn 0.000000 0.000000 -1.000000
vn 0.000000 0.000000 -1.000000
vn 0.000000 0.000000 -1.000000
vn 0.000000 0.000000 -1.000000
vn 0.000000 0.000000 -1.000000
vn 0.000000 0.000000 -1.000000
vn 0.000000 0.000000 -1.000000
vn 0.000000 0.000000 -1.000000
vn 0.000000 0.000000 -1.000000
vn 0.000000 0.000000 -1.000000
vn 0.000000 0.000000 -1.000000
vn 0.000000 0.000000 -1.000000
vn 0.000000 0.000000 -1.000000
vn 0.000000 0.000000 -1.000000
vn 0.000000 0.000000 -1.000000
vn 0.000000 0.000000 -1.000000
vn 0.000000 0.000000 -1.000000
vn 0.000000 0.000000 -1.000000
vn 0.000000 0.000000 -1.000000
vn 0.000000 0.000000 -1.000000
vn 0.000000 0.000000 -1.000000
vn 0.000000 0.000000 -1.000000
vn 0.000000 0.000000 -1.000000
vn 0.000000 0.000000 -1.000000
vn 0.000000 0.000000 -1.000000
vn 0.000000 0.000000 -1.000000
vn 0.000000 0.000000 -1.000000
vn 0.000000 0.000000 -1.000000
vn 0.000000 0.000000 1.000000
vn 0.000000 0.000000 1.000000
vn 0.000000 0.000000 1.000000
vn 0.000000 0.000000 1.000000
vn 0.000000 0.000000 -1.000000
vn 0.000000 0.000000 -1.000000
vn 0.000000 0.000000 -1.000000
vn 0.000000 0.000000 -1.000000
vn 0.000000 -1.000000 0.000000
vn 0.000000 -1.000000 0.000000
vn 0.000000 -1.000000 0.000000
vn 0.000000 -1.000000 0.000000
vn 1.000000 0.000000 0.000000
vn 1.000000 0.000000 0.000000
vn 1.000000 0.000000 0.000000
vn 1.000000 0.000000 0.000000
vn -1.000000 0.000000 0.000000
vn -1.000000 0.000000 0.000000
vn -1.000000 0.000000 0.000000
vn -1.000000 0.000000 0.000000
vn -0.904534 0.426401 -0.000000
vn -0.904534 0.426401 -0.000000
vn -0.904534 0.426401 -0.000000
vn -0.000000 0.426401 0.904534
vn -0.000000 0.426401 0.904534
vn -0.000000 0.426401 0.904534
vn 0.904534 0.426401 0.000000
vn 0.904534 0.426401 0.000000
vn 0.904534 0.426401 0.000000
vn 0.000000 0.426401 -0.904534
vn 0.000000 0.426401 -0.904534
vn 0.000000 0.426401 -0.904534
s off
g polySurface13
usemtl phong2SG
f 1/1/1 2/2/2 3/3/3
f 4/4/4 5/5/5 6/6/6
f 7/7/7 8/8/8 9/9/9
f 10/10/10 11/11/11 12/12/12
f 13/13/13 14/14/14 15/15/15
f 16/16/16 17/17/17 18/18/18
f 19/19/19 20/20/20 21/21/21
f 22/22/22 23/23/23 24/24/24
f 25/25/25 26/26/26 27/27/27
f 28/28/28 29/29/29 30/30/30
f 31/31/31 32/32/32 33/33/33
f 34/34/34 35/35/35 36/36/36
f 37/37/37 38/38/38 39/39/39
f 40/40/40 41/41/41 42/42/42
f 43/43/43 44/44/44 45/45/45
f 46/46/46 47/47/47 48/48/48
f 49/49/49 50/50/50 51/51/51
f 52/52/52 53/53/53 54/54/54
f 55/55/55 56/56/56 57/57/57
f 58/58/58 59/59/59 60/60/60
f 61/61/61 62/62/62 63/63/63
f 64/64/64 65/65/65 66/66/66
f 67/67/67 68/68/68 69/69/69
f 70/70/70 71/71/71 72/72/72
f 73/73/73 74/74/74 75/75/75
f 76/76/76 77/77/77 78/78/78
f 79/79/79 80/80/80 81/81/81
f 82/82/82 83/83/83 84/84/84
f 85/85/85 86/86/86 87/87/87
f 88/88/88 89/89/89 90/90/90
f 91/91/91 92/92/92 93/93/93
f 94/94/94 95/95/95 96/96/96
f 97/97/97 98/98/98 99/99/99
f 100/100/100 101/101/101 102/102/102
f 103/103/103 104/104/104 105/105/105
f 106/106/106 107/107/107 108/108/108
f 109/109/109 110/110/110 111/111/111
f 112/112/112 113/113/113 114/114/114
f 115/115/115 116/116/116 117/117/117
f 118/118/118 119/119/119 120/120/120
f 121/121/121 122/122/122 123/123/123
f 124/124/124 125/125/125 126/126/126
f 127/127/127 128/128/128 129/129/129
f 130/130/130 131/131/131 132/132/132
f 133/133/133 134/134/134 135/135/135
f 136/136/136 137/137/137 138/138/138
f 139/139/139 140/140/140 141/141/141
f 142/142/142 143/143/143 144/144/144
usemtl phong3SG
f 145/145/145 146/146/146 148/147/147 147/148/148
f 149/149/149 150/150/150 152/151/151 151/152/152
f 151/152/153 152/151/154 146/153/155 145/154/156
f 146/146/157 152/155/158 150/156/159 148/147/160
f 151/157/161 145/145/162 147/148/163 149/158/164
f 153/159/165 154/160/166 157/161/167
f 154/160/168 155/162/169 157/161/170
f 155/162/171 156/163/172 157/161/173
f 156/163/174 153/164/175 157/161/176
