# This file uses centimeters as units for non-parametric coordinates.

mtllib BuildingV8.mtl
g default
v -0.619622 0.739249 0.266535
v -0.564321 0.224364 -0.251312
v -0.564321 0.224364 0.266535
v -0.564321 0.224364 -0.251312
v -0.619622 0.739249 0.266535
v -0.619622 0.739249 -0.251312
v -0.745866 1.655496 0.266535
v -0.690565 1.140610 -0.251312
v -0.690565 1.140610 0.266535
v -0.690565 1.140610 -0.251312
v -0.745866 1.655496 0.266535
v -0.745866 1.655496 -0.251312
v -0.853196 2.573017 0.266535
v -0.797895 2.058132 -0.251312
v -0.797895 2.058132 0.266535
v -0.797895 2.058132 -0.251312
v -0.853196 2.573017 0.266535
v -0.853196 2.573017 -0.251312
v -0.956683 3.370641 0.266535
v -0.901382 2.855755 -0.251312
v -0.901382 2.855755 0.266535
v -0.901382 2.855755 -0.251312
v -0.956683 3.370641 0.266535
v -0.956683 3.370641 -0.251312
v 0.266535 0.739249 0.619622
v -0.251312 0.224364 0.564321
v 0.266535 0.224364 0.564321
v -0.251312 0.224364 0.564321
v 0.266535 0.739249 0.619622
v -0.251312 0.739249 0.619622
v 0.266535 1.655496 0.745866
v -0.251312 1.140610 0.690565
v 0.266535 1.140610 0.690565
v -0.251312 1.140610 0.690565
v 0.266535 1.655496 0.745866
v -0.251312 1.655496 0.745866
v 0.266535 2.573017 0.853196
v -0.251312 2.058132 0.797895
v 0.266535 2.058132 0.797895
v -0.251312 2.058132 0.797895
v 0.266535 2.573017 0.853196
v -0.251312 2.573017 0.853196
v 0.266535 3.370641 0.956683
v -0.251312 2.855755 0.901382
v 0.266535 2.855755 0.901382
v -0.251312 2.855755 0.901382
v 0.266535 3.370641 0.956683
v -0.251312 3.370641 0.956683
v -0.266535 0.739249 -0.619622
v 0.251312 0.224364 -0.564321
v -0.266535 0.224364 -0.564321
v 0.251312 0.224364 -0.564321
v -0.266535 0.739249 -0.619622
v 0.251312 0.739249 -0.619622
v -0.266535 1.655496 -0.745866
v 0.251312 1.140610 -0.690565
v -0.266535 1.140610 -0.690565
v 0.251312 1.140610 -0.690565
v -0.266535 1.655496 -0.745866
v 0.251312 1.655496 -0.745866
v -0.266535 2.573017 -0.853196
v 0.251312 2.058132 -0.797895
v -0.266535 2.058132 -0.797895
v 0.251312 2.058132 -0.797895
v -0.266535 2.573017 -0.853196
v 0.251312 2.573017 -0.853196
v -0.266535 3.370641 -0.956683
v 0.251312 2.855755 -0.901382
v -0.266535 2.855755 -0.901382
v 0.251312 2.855755 -0.901382
v -0.266535 3.370641 -0.956683
v 0.251312 3.370641 -0.956683
v 0.619622 0.739249 -0.266535
v 0.564321 0.224364 0.251312
v 0.564321 0.224364 -0.266535
v 0.564321 0.224364 0.251312
v 0.619622 0.739249 -0.266535
v 0.619622 0.739249 0.251312
v 0.745866 1.655496 -0.266535
v 0.690565 1.140610 0.251312
v 0.690565 1.140610 -0.266535
v 0.690565 1.140610 0.251312
v 0.745866 1.655496 -0.266535
v 0.745866 1.655496 0.251312
v 0.853196 2.573017 -0.266535
v 0.797895 2.058132 0.251312
v 0.797895 2.058132 -0.266535
v 0.797895 2.058132 0.251312
v 0.853196 2.573017 -0.266535
v 0.853196 2.573017 0.251312
v 0.956683 3.370641 -0.266535
v 0.901382 2.855755 0.251312
v 0.901382 2.855755 -0.266535
v 0.901382 2.855755 0.251312
v 0.956683 3.370641 -0.266535
v 0.956683 3.370641 0.251312
v -0.500000 -0.051438 0.500000
v 0.500000 -0.051439 0.500000
v -0.995255 3.682827 0.995255
v 0.995255 3.682827 0.995255
v -0.995255 3.682827 -0.995255
v 0.995255 3.682827 -0.995255
v -0.500000 -0.051438 -0.500000
v 0.500000 -0.051439 -0.500000
vt 0.000000 1.000000
vt 1.000000 0.000000
vt 1.000000 1.000000
vt 0.000000 1.000000
vt 1.000000 0.000000
vt 1.000000 1.000000
vt 0.000000 1.000000
vt 1.000000 0.000000
vt 1.000000 1.000000
vt 0.000000 1.000000
vt 1.000000 0.000000
vt 1.000000 1.000000
vt 0.000000 1.000000
vt 1.000000 0.000000
vt 1.000000 1.000000
vt 0.000000 1.000000
vt 1.000000 0.000000
vt 1.000000 1.000000
vt 0.000000 1.000000
vt 1.000000 0.000000
vt 1.000000 1.000000
vt 0.000000 1.000000
vt 1.000000 0.000000
vt 1.000000 1.000000
vt 0.000000 1.000000
vt 1.000000 0.000000
vt 1.000000 1.000000
vt 0.000000 1.000000
vt 1.000000 0.000000
vt 1.000000 1.000000
vt 0.000000 1.000000
vt 1.000000 0.000000
vt 1.000000 1.000000
vt 0.000000 1.000000
vt 1.000000 0.000000
vt 1.000000 1.000000
vt 0.000000 1.000000
vt 1.000000 0.000000
vt 1.000000 1.000000
vt 0.000000 1.000000
vt 1.000000 0.000000
vt 1.000000 1.000000
vt 0.000000 1.000000
vt 1.000000 0.000000
vt 1.000000 1.000000
vt 0.000000 1.000000
vt 1.000000 0.000000
vt 1.000000 1.000000
vt 0.000000 1.000000
vt 1.000000 0.000000
vt 1.000000 1.000000
vt 0.000000 1.000000
vt 1.000000 0.000000
vt 1.000000 1.000000
vt 0.000000 1.000000
vt 1.000000 0.000000
vt 1.000000 1.000000
vt 0.000000 1.000000
vt 1.000000 0.000000
vt 1.000000 1.000000
vt 0.000000 1.000000
vt 1.000000 0.000000
vt 1.000000 1.000000
vt 0.000000 1.000000
vt 1.000000 0.000000
vt 1.000000 1.000000
vt 0.000000 1.000000
vt 1.000000 0.000000
vt 1.000000 1.000000
vt 0.000000 1.000000
vt 1.000000 0.000000
vt 1.000000 1.000000
vt 0.000000 1.000000
vt 1.000000 0.000000
vt 1.000000 1.000000
vt 0.000000 1.000000
vt 1.000000 0.000000
vt 1.000000 1.000000
vt 0.000000 1.000000
vt 1.000000 0.000000
vt 1.000000 1.000000
vt 0.000000 1.000000
vt 1.000000 0.000000
vt 1.000000 1.000000
vt 0.000000 1.000000
vt 1.000000 0.000000
vt 1.000000 1.000000
vt 0.000000 1.000000
vt 1.000000 0.000000
vt 1.000000 1.000000
vt 0.000000 1.000000
vt 1.000000 0.000000
vt 1.000000 1.000000
vt 0.000000 1.000000
vt 1.000000 0.000000
vt 1.000000 1.000000
vt 0.375000 0.000000
vt 0.625000 0.000000
vt 0.625000 0.250000
vt 0.375000 0.250000
vt 0.625000 0.500000
vt 0.375000 0.500000
vt 0.625000 0.750000
vt 0.375000 0.750000
vt 0.625000 1.000000
vt 0.375000 1.000000
vt 0.875000 0.000000
vt 0.875000 0.250000
vt 0.125000 0.000000
vt 0.125000 0.250000
vn -0.994282 -0.106791 0.000000
vn -0.994282 -0.106791 0.000000
vn -0.994282 -0.106791 0.000000
vn -0.994282 -0.106790 0.000000
vn -0.994282 -0.106790 0.000000
vn -0.994282 -0.106790 0.000000
vn -0.994282 -0.106790 0.000000
vn -0.994282 -0.106790 0.000000
vn -0.994282 -0.106790 0.000000
vn -0.994282 -0.106790 0.000000
vn -0.994282 -0.106790 0.000000
vn -0.994282 -0.106790 0.000000
vn -0.994282 -0.106790 0.000000
vn -0.994282 -0.106790 0.000000
vn -0.994282 -0.106790 0.000000
vn -0.994282 -0.106791 0.000000
vn -0.994282 -0.106791 0.000000
vn -0.994282 -0.106791 0.000000
vn -0.994282 -0.106790 0.000000
vn -0.994282 -0.106790 0.000000
vn -0.994282 -0.106790 0.000000
vn -0.994282 -0.106791 0.000000
vn -0.994282 -0.106791 0.000000
vn -0.994282 -0.106791 0.000000
vn 0.000000 -0.106790 0.994282
vn 0.000000 -0.106790 0.994282
vn 0.000000 -0.106790 0.994282
vn 0.000000 -0.106790 0.994282
vn 0.000000 -0.106790 0.994282
vn 0.000000 -0.106790 0.994282
vn 0.000000 -0.106790 0.994282
vn 0.000000 -0.106790 0.994282
vn 0.000000 -0.106790 0.994282
vn 0.000000 -0.106790 0.994282
vn 0.000000 -0.106790 0.994282
vn 0.000000 -0.106790 0.994282
vn 0.000000 -0.106790 0.994282
vn 0.000000 -0.106790 0.994282
vn 0.000000 -0.106790 0.994282
vn 0.000000 -0.106790 0.994282
vn 0.000000 -0.106790 0.994282
vn 0.000000 -0.106790 0.994282
vn 0.000000 -0.106790 0.994282
vn 0.000000 -0.106790 0.994282
vn 0.000000 -0.106790 0.994282
vn 0.000000 -0.106790 0.994282
vn 0.000000 -0.106790 0.994282
vn 0.000000 -0.106790 0.994282
vn 0.000000 -0.106790 -0.994282
vn 0.000000 -0.106790 -0.994282
vn 0.000000 -0.106790 -0.994282
vn 0.000000 -0.106790 -0.994282
vn 0.000000 -0.106790 -0.994282
vn 0.000000 -0.106790 -0.994282
vn 0.000000 -0.106790 -0.994282
vn 0.000000 -0.106790 -0.994282
vn 0.000000 -0.106790 -0.994282
vn 0.000000 -0.106790 -0.994282
vn 0.000000 -0.106790 -0.994282
vn 0.000000 -0.106790 -0.994282
vn 0.000000 -0.106790 -0.994282
vn 0.000000 -0.106790 -0.994282
vn 0.000000 -0.106790 -0.994282
vn 0.000000 -0.106790 -0.994282
vn 0.000000 -0.106790 -0.994282
vn 0.000000 -0.106790 -0.994282
vn 0.000000 -0.106790 -0.994282
vn 0.000000 -0.106790 -0.994282
vn 0.000000 -0.106790 -0.994282
vn 0.000000 -0.106790 -0.994282
vn 0.000000 -0.106790 -0.994282
vn 0.000000 -0.106790 -0.994282
vn 0.994282 -0.106791 0.000000
vn 0.994282 -0.106791 0.000000
vn 0.994282 -0.106791 0.000000
vn 0.994282 -0.106790 0.000000
vn 0.994282 -0.106790 0.000000
vn 0.994282 -0.106790 0.000000
vn 0.994282 -0.106790 0.000000
vn 0.994282 -0.106790 0.000000
vn 0.994282 -0.106790 0.000000
vn 0.994282 -0.106790 0.000000
vn 0.994282 -0.106790 0.000000
vn 0.994282 -0.106790 0.000000
vn 0.994282 -0.106790 0.000000
vn 0.994282 -0.106790 0.000000
vn 0.994282 -0.106790 0.000000
vn 0.994282 -0.106791 0.000000
vn 0.994282 -0.106791 0.000000
vn 0.994282 -0.106791 0.000000
vn 0.994282 -0.106790 0.000000
vn 0.994282 -0.106790 0.000000
vn 0.994282 -0.106790 0.000000
vn 0.994282 -0.106791 0.000000
vn 0.994282 -0.106791 0.000000
vn 0.994282 -0.106791 0.000000
vn 0.000000 -0.131473 0.991320
vn 0.000000 -0.131473 0.991320
vn 0.000000 -0.131473 0.991320
vn 0.000000 -0.131473 0.991320
vn 0.000000 1.000000 0.000000
vn 0.000000 1.000000 0.000000
vn 0.000000 1.000000 0.000000
vn 0.000000 1.000000 0.000000
vn -0.000000 -0.131473 -0.991320
vn -0.000000 -0.131473 -0.991320
vn -0.000000 -0.131473 -0.991320
vn -0.000000 -0.131473 -0.991320
vn -0.000000 -1.000000 -0.000000
vn -0.000000 -1.000000 -0.000000
vn -0.000000 -1.000000 -0.000000
vn -0.000000 -1.000000 -0.000000
vn 0.991320 -0.131473 -0.000000
vn 0.991320 -0.131473 -0.000000
vn 0.991320 -0.131473 -0.000000
vn 0.991320 -0.131473 -0.000000
vn -0.991320 -0.131473 -0.000000
vn -0.991320 -0.131473 -0.000000
vn -0.991320 -0.131473 -0.000000
vn -0.991320 -0.131473 -0.000000
s off
g polySurface127
usemtl phong2SG
f 1/1/1 2/2/2 3/3/3
f 4/4/4 5/5/5 6/6/6
f 7/7/7 8/8/8 9/9/9
f 10/10/10 11/11/11 12/12/12
f 13/13/13 14/14/14 15/15/15
f 16/16/16 17/17/17 18/18/18
f 19/19/19 20/20/20 21/21/21
f 22/22/22 23/23/23 24/24/24
f 25/25/25 26/26/26 27/27/27
f 28/28/28 29/29/29 30/30/30
f 31/31/31 32/32/32 33/33/33
f 34/34/34 35/35/35 36/36/36
f 37/37/37 38/38/38 39/39/39
f 40/40/40 41/41/41 42/42/42
f 43/43/43 44/44/44 45/45/45
f 46/46/46 47/47/47 48/48/48
f 49/49/49 50/50/50 51/51/51
f 52/52/52 53/53/53 54/54/54
f 55/55/55 56/56/56 57/57/57
f 58/58/58 59/59/59 60/60/60
f 61/61/61 62/62/62 63/63/63
f 64/64/64 65/65/65 66/66/66
f 67/67/67 68/68/68 69/69/69
f 70/70/70 71/71/71 72/72/72
f 73/73/73 74/74/74 75/75/75
f 76/76/76 77/77/77 78/78/78
f 79/79/79 80/80/80 81/81/81
f 82/82/82 83/83/83 84/84/84
f 85/85/85 86/86/86 87/87/87
f 88/88/88 89/89/89 90/90/90
f 91/91/91 92/92/92 93/93/93
f 94/94/94 95/95/95 96/96/96
usemtl phong3SG
f 97/97/97 98/98/98 100/99/99 99/100/100
f 99/100/101 100/99/102 102/101/103 101/102/104
f 101/102/105 102/101/106 104/103/107 103/104/108
f 103/104/109 104/103/110 98/105/111 97/106/112
f 98/98/113 104/107/114 102/108/115 100/99/116
f 103/109/117 97/97/118 99/100/119 101/110/120
