# This file uses centimeters as units for non-parametric coordinates.

mtllib BuildingV5.mtl
g default
v -1.500000 -0.097039 -1.500000
v -1.500000 -0.097039 1.500000
v 1.500000 -0.097039 1.500000
v 1.500000 -0.097039 -1.500000
v 0.000000 3.535534 0.000000
v 0.226995 2.492650 -0.445504
v 0.078217 2.492650 -0.493844
v -0.226995 2.492650 -0.445503
v -0.445503 2.492650 -0.226995
v -0.493844 2.492650 -0.078217
v -0.445503 2.492650 0.226995
v -0.226995 2.492650 0.445503
v -0.078217 2.492650 0.493844
v 0.226995 2.492650 0.445503
v 0.445503 2.492650 0.226995
v 0.445503 2.492650 -0.226995
v 0.270348 2.786543 -0.530587
v 0.093155 2.786543 -0.588160
v -0.270348 2.786543 -0.530587
v -0.530587 2.786543 -0.270348
v -0.588160 2.786543 -0.093155
v -0.530587 2.786543 0.270348
v -0.270348 2.786543 0.530587
v -0.093155 2.786543 0.588160
v 0.270348 2.786543 0.530587
v 0.530587 2.786543 0.270348
v 0.530587 2.786543 -0.270348
v 0.453991 2.992650 -0.891007
v 0.156435 2.992650 -0.987689
v -0.453991 2.992650 -0.891007
v -0.891007 2.992650 -0.453991
v -0.987689 2.992650 -0.156435
v -0.891007 2.992650 0.453991
v -0.453991 2.992650 0.891007
v -0.156435 2.992650 0.987689
v 0.453991 2.992650 0.891007
v 0.891007 2.992650 0.453991
v 0.891007 2.992650 -0.453991
v 0.587415 2.897159 -1.152867
v 0.202410 2.897159 -1.277963
v -0.587415 2.897159 -1.152867
v -1.152867 2.897159 -0.587415
v -1.277963 2.897159 -0.202409
v -1.152867 2.897159 0.587415
v -0.587415 2.897159 1.152867
v -0.202410 2.897159 1.277963
v 0.587415 2.897159 1.152867
v 1.152867 2.897159 0.587415
v 1.152867 2.897159 -0.587415
v 0.669876 2.647159 -1.314706
v 0.230824 2.647159 -1.457363
v -0.669876 2.647159 -1.314706
v -1.314706 2.647159 -0.669876
v -1.457363 2.647159 -0.230824
v -1.314706 2.647159 0.669876
v -0.669876 2.647159 1.314706
v -0.230824 2.647159 1.457362
v 0.669876 2.647159 1.314706
v 1.314705 2.647159 0.669876
v 1.314705 2.647159 -0.669876
v 0.669876 2.338141 -1.314706
v 0.230824 2.338141 -1.457363
v -0.669876 2.338141 -1.314706
v -1.314706 2.338141 -0.669876
v -1.457363 2.338141 -0.230824
v -1.314706 2.338141 0.669876
v -0.669876 2.338141 1.314706
v -0.230824 2.338141 1.457362
v 0.669876 2.338141 1.314706
v 1.314705 2.338141 0.669876
v 1.314705 2.338141 -0.669876
v 0.587415 2.088141 -1.152868
v 0.202410 2.088141 -1.277964
v -0.587415 2.088141 -1.152867
v -1.152867 2.088141 -0.587415
v -1.277963 2.088141 -0.202410
v -1.152867 2.088141 0.587415
v -0.587415 2.088141 1.152867
v -0.202409 2.088141 1.277963
v 0.587415 2.088141 1.152867
v 1.152867 2.088141 0.587415
v 1.152867 2.088141 -0.587415
v 0.453991 1.992650 -0.891007
v 0.156435 1.992650 -0.987689
v -0.453991 1.992650 -0.891007
v -0.891007 1.992650 -0.453991
v -0.987689 1.992650 -0.156435
v -0.891007 1.992650 0.453991
v -0.453991 1.992650 0.891007
v -0.156435 1.992650 0.987689
v 0.453991 1.992650 0.891007
v 0.891007 1.992650 0.453991
v 0.891007 1.992650 -0.453991
v 0.270348 2.198757 -0.530587
v 0.093155 2.198757 -0.588160
v -0.270348 2.198757 -0.530587
v -0.530587 2.198757 -0.270347
v -0.588160 2.198757 -0.093155
v -0.530587 2.198757 0.270347
v -0.270347 2.198757 0.530587
v -0.093155 2.198757 0.588160
v 0.270347 2.198757 0.530587
v 0.530587 2.198757 0.270347
v 0.530587 2.198757 -0.270347
v -0.212640 1.399725 -0.886135
v 0.301722 0.927550 -1.107073
v -0.215939 0.925175 -1.093396
v 0.301722 0.927550 -1.107073
v -0.212640 1.399725 -0.886135
v 0.305021 1.402099 -0.899812
v -0.241587 0.699725 -1.178152
v 0.272775 0.227550 -1.399090
v -0.244886 0.225175 -1.385413
v 0.272775 0.227550 -1.399090
v -0.241587 0.699725 -1.178152
v 0.276074 0.702099 -1.191829
v 0.475289 0.699725 -1.180993
v 0.989651 0.227550 -1.401930
v 0.471990 0.225175 -1.388253
v 0.989651 0.227550 -1.401930
v 0.475289 0.699725 -1.180993
v 0.992950 0.702099 -1.194670
v -0.945396 0.699725 -1.171963
v -0.431035 0.227550 -1.392900
v -0.948696 0.225175 -1.379223
v -0.431035 0.227550 -1.392900
v -0.945396 0.699725 -1.171963
v -0.427735 0.702099 -1.185640
v -0.886135 1.399725 0.212640
v -1.107073 0.927550 -0.301722
v -1.093396 0.925175 0.215939
v -1.107073 0.927550 -0.301722
v -0.886135 1.399725 0.212640
v -0.899812 1.402099 -0.305021
v -1.178152 0.699725 0.241587
v -1.399090 0.227550 -0.272775
v -1.385413 0.225175 0.244886
v -1.399090 0.227550 -0.272775
v -1.178152 0.699725 0.241587
v -1.191829 0.702099 -0.276074
v -1.180993 0.699725 -0.475289
v -1.401930 0.227550 -0.989651
v -1.388253 0.225175 -0.471990
v -1.401930 0.227550 -0.989651
v -1.180993 0.699725 -0.475289
v -1.194670 0.702099 -0.992950
v -1.171963 0.699725 0.945396
v -1.392900 0.227550 0.431035
v -1.379223 0.225175 0.948696
v -1.392900 0.227550 0.431035
v -1.171963 0.699725 0.945396
v -1.185640 0.702099 0.427735
v 0.212640 1.399725 0.886135
v -0.301722 0.927550 1.107073
v 0.215939 0.925175 1.093396
v -0.301722 0.927550 1.107073
v 0.212640 1.399725 0.886135
v -0.305021 1.402099 0.899812
v 0.241587 0.699725 1.178152
v -0.272775 0.227550 1.399090
v 0.244886 0.225175 1.385413
v -0.272775 0.227550 1.399090
v 0.241587 0.699725 1.178152
v -0.276074 0.702099 1.191829
v -0.475289 0.699725 1.180993
v -0.989651 0.227550 1.401930
v -0.471990 0.225175 1.388253
v -0.989651 0.227550 1.401930
v -0.475289 0.699725 1.180993
v -0.992950 0.702099 1.194670
v 0.945396 0.699725 1.171963
v 0.431035 0.227550 1.392900
v 0.948696 0.225175 1.379223
v 0.431035 0.227550 1.392900
v 0.945396 0.699725 1.171963
v 0.427735 0.702099 1.185640
v 0.886135 1.399725 -0.212640
v 1.107073 0.927550 0.301722
v 1.093396 0.925175 -0.215939
v 1.107073 0.927550 0.301722
v 0.886135 1.399725 -0.212640
v 0.899812 1.402099 0.305021
v 1.178152 0.699725 -0.241587
v 1.399090 0.227550 0.272775
v 1.385413 0.225175 -0.244886
v 1.399090 0.227550 0.272775
v 1.178152 0.699725 -0.241587
v 1.191829 0.702099 0.276074
v 1.180993 0.699725 0.475289
v 1.401930 0.227550 0.989651
v 1.388253 0.225175 0.471990
v 1.401930 0.227550 0.989651
v 1.180993 0.699725 0.475289
v 1.194670 0.702099 0.992950
v 1.171963 0.699725 -0.945396
v 1.392900 0.227550 -0.431035
v 1.379223 0.225175 -0.948696
v 1.392900 0.227550 -0.431035
v 1.171963 0.699725 -0.945396
v 1.185640 0.702099 -0.427735
vt 0.500000 0.000000
vt 0.250000 0.250000
vt 0.500000 0.500000
vt 0.750000 0.250000
vt 0.250000 0.500000
vt 0.375000 0.500000
vt 0.500000 0.500000
vt 0.625000 0.500000
vt 0.750000 0.500000
vt 0.500000 1.000000
vt 0.050000 1.000000
vt 0.000000 1.000000
vt 0.000000 0.900000
vt 0.050000 0.900000
vt 0.150000 1.000000
vt 0.150000 0.900000
vt 0.250000 1.000000
vt 0.250000 0.900000
vt 0.300000 1.000000
vt 0.300000 0.900000
vt 0.400000 1.000000
vt 0.400000 0.900000
vt 0.500000 1.000000
vt 0.500000 0.900000
vt 0.550000 1.000000
vt 0.550000 0.900000
vt 0.650000 1.000000
vt 0.650000 0.900000
vt 0.750000 1.000000
vt 0.750000 0.900000
vt 0.900000 1.000000
vt 0.900000 0.900000
vt 1.000000 1.000000
vt 1.000000 0.900000
vt 0.000000 0.750000
vt 0.050000 0.750000
vt 0.150000 0.750000
vt 0.250000 0.750000
vt 0.300000 0.750000
vt 0.400000 0.750000
vt 0.500000 0.750000
vt 0.550000 0.750000
vt 0.650000 0.750000
vt 0.750000 0.750000
vt 0.900000 0.750000
vt 1.000000 0.750000
vt 0.000000 0.650000
vt 0.050000 0.650000
vt 0.150000 0.650000
vt 0.250000 0.650000
vt 0.300000 0.650000
vt 0.400000 0.650000
vt 0.500000 0.650000
vt 0.550000 0.650000
vt 0.650000 0.650000
vt 0.750000 0.650000
vt 0.900000 0.650000
vt 1.000000 0.650000
vt 0.000000 0.550000
vt 0.050000 0.550000
vt 0.150000 0.550000
vt 0.250000 0.550000
vt 0.300000 0.550000
vt 0.400000 0.550000
vt 0.500000 0.550000
vt 0.550000 0.550000
vt 0.650000 0.550000
vt 0.750000 0.550000
vt 0.900000 0.550000
vt 1.000000 0.550000
vt 0.000000 0.450000
vt 0.050000 0.450000
vt 0.150000 0.450000
vt 0.250000 0.450000
vt 0.300000 0.450000
vt 0.400000 0.450000
vt 0.500000 0.450000
vt 0.550000 0.450000
vt 0.650000 0.450000
vt 0.750000 0.450000
vt 0.900000 0.450000
vt 1.000000 0.450000
vt 0.000000 0.350000
vt 0.050000 0.350000
vt 0.150000 0.350000
vt 0.250000 0.350000
vt 0.300000 0.350000
vt 0.400000 0.350000
vt 0.500000 0.350000
vt 0.550000 0.350000
vt 0.650000 0.350000
vt 0.750000 0.350000
vt 0.900000 0.350000
vt 1.000000 0.350000
vt 0.000000 0.250000
vt 0.050000 0.250000
vt 0.150000 0.250000
vt 0.250000 0.250000
vt 0.300000 0.250000
vt 0.400000 0.250000
vt 0.500000 0.250000
vt 0.550000 0.250000
vt 0.650000 0.250000
vt 0.750000 0.250000
vt 0.900000 0.250000
vt 1.000000 0.250000
vt 0.000000 0.100000
vt 0.050000 0.100000
vt 0.150000 0.100000
vt 0.250000 0.100000
vt 0.300000 0.100000
vt 0.400000 0.100000
vt 0.500000 0.100000
vt 0.550000 0.100000
vt 0.650000 0.100000
vt 0.750000 0.100000
vt 0.900000 0.100000
vt 1.000000 0.100000
vt 0.000000 -0.000000
vt 0.050000 -0.000000
vt 0.150000 -0.000000
vt 0.250000 -0.000000
vt 0.300000 -0.000000
vt 0.400000 -0.000000
vt 0.500000 -0.000000
vt 0.550000 -0.000000
vt 0.650000 -0.000000
vt 0.750000 -0.000000
vt 0.900000 -0.000000
vt 1.000000 -0.000000
vt 0.000000 1.000000
vt 1.000000 0.000000
vt 1.000000 1.000000
vt 0.000000 1.000000
vt 1.000000 0.000000
vt 1.000000 1.000000
vt 0.000000 1.000000
vt 1.000000 0.000000
vt 1.000000 1.000000
vt 0.000000 1.000000
vt 1.000000 0.000000
vt 1.000000 1.000000
vt 0.000000 1.000000
vt 1.000000 0.000000
vt 1.000000 1.000000
vt 0.000000 1.000000
vt 1.000000 0.000000
vt 1.000000 1.000000
vt 0.000000 1.000000
vt 1.000000 0.000000
vt 1.000000 1.000000
vt 0.000000 1.000000
vt 1.000000 0.000000
vt 1.000000 1.000000
vt 0.000000 1.000000
vt 1.000000 0.000000
vt 1.000000 1.000000
vt 0.000000 1.000000
vt 1.000000 0.000000
vt 1.000000 1.000000
vt 0.000000 1.000000
vt 1.000000 0.000000
vt 1.000000 1.000000
vt 0.000000 1.000000
vt 1.000000 0.000000
vt 1.000000 1.000000
vt 0.000000 1.000000
vt 1.000000 0.000000
vt 1.000000 1.000000
vt 0.000000 1.000000
vt 1.000000 0.000000
vt 1.000000 1.000000
vt 0.000000 1.000000
vt 1.000000 0.000000
vt 1.000000 1.000000
vt 0.000000 1.000000
vt 1.000000 0.000000
vt 1.000000 1.000000
vt 0.000000 1.000000
vt 1.000000 0.000000
vt 1.000000 1.000000
vt 0.000000 1.000000
vt 1.000000 0.000000
vt 1.000000 1.000000
vt 0.000000 1.000000
vt 1.000000 0.000000
vt 1.000000 1.000000
vt 0.000000 1.000000
vt 1.000000 0.000000
vt 1.000000 1.000000
vt 0.000000 1.000000
vt 1.000000 0.000000
vt 1.000000 1.000000
vt 0.000000 1.000000
vt 1.000000 0.000000
vt 1.000000 1.000000
vt 0.000000 1.000000
vt 1.000000 0.000000
vt 1.000000 1.000000
vt 0.000000 1.000000
vt 1.000000 0.000000
vt 1.000000 1.000000
vt 0.000000 1.000000
vt 1.000000 0.000000
vt 1.000000 1.000000
vt 0.000000 1.000000
vt 1.000000 0.000000
vt 1.000000 1.000000
vt 0.000000 1.000000
vt 1.000000 0.000000
vt 1.000000 1.000000
vt 0.000000 1.000000
vt 1.000000 0.000000
vt 1.000000 1.000000
vt 0.000000 1.000000
vt 1.000000 0.000000
vt 1.000000 1.000000
vt 0.000000 1.000000
vt 1.000000 0.000000
vt 1.000000 1.000000
vt 0.000000 1.000000
vt 1.000000 0.000000
vt 1.000000 1.000000
vt 0.000000 1.000000
vt 1.000000 0.000000
vt 1.000000 1.000000
vn 0.000000 -1.000000 0.000000
vn 0.000000 -1.000000 0.000000
vn 0.000000 -1.000000 0.000000
vn 0.000000 -1.000000 0.000000
vn -0.924298 0.381671 -0.000000
vn -0.924298 0.381671 -0.000000
vn -0.924298 0.381671 -0.000000
vn 0.000000 0.381671 0.924298
vn 0.000000 0.381671 0.924298
vn 0.000000 0.381671 0.924298
vn 0.924298 0.381671 0.000000
vn 0.924298 0.381671 0.000000
vn 0.924298 0.381671 0.000000
vn 0.000000 0.381671 -0.924298
vn 0.000000 0.381671 -0.924298
vn 0.000000 0.381671 -0.924298
vn 0.003049 0.000001 0.999995
vn -0.590250 0.000000 0.807221
vn -0.375307 0.771802 0.513290
vn 0.001925 0.771802 0.635860
vn 0.453991 0.000001 0.891007
vn 0.284360 0.779537 0.558087
vn 0.807221 0.000001 0.590249
vn 0.513290 0.771802 0.375307
vn 0.999995 0.000001 -0.003050
vn 0.635860 0.771802 -0.001926
vn 0.891006 0.000001 -0.453991
vn 0.558088 0.779537 -0.284360
vn 0.590249 0.000000 -0.807221
vn 0.375307 0.771802 -0.513290
vn -0.003049 0.000001 -0.999995
vn -0.001925 0.771802 -0.635860
vn -0.453991 0.000001 -0.891007
vn -0.284360 0.779537 -0.558087
vn -0.952676 0.000001 -0.303987
vn -0.594617 0.781339 -0.189577
vn -0.952676 0.000001 0.303987
vn -0.594618 0.781339 0.189577
vn -0.008425 0.999794 0.018471
vn -0.004041 0.999794 0.019896
vn 0.003339 0.999973 0.006553
vn 0.018472 0.999794 0.008425
vn 0.019896 0.999794 0.004042
vn 0.006552 0.999973 -0.003339
vn 0.008425 0.999794 -0.018472
vn 0.004041 0.999794 -0.019896
vn -0.003339 0.999973 -0.006552
vn 0.016977 0.999853 -0.002294
vn 0.016977 0.999853 0.002293
vn 0.382755 0.760573 -0.524431
vn -0.001402 0.760573 -0.649251
vn -0.295614 0.758954 -0.580174
vn -0.524431 0.760573 -0.382755
vn -0.649251 0.760573 0.001402
vn -0.580174 0.758954 0.295614
vn -0.382755 0.760573 0.524431
vn 0.001402 0.760573 0.649251
vn 0.295614 0.758954 0.580174
vn 0.635136 0.745035 0.203777
vn 0.635136 0.745035 -0.203778
vn 0.562057 0.280392 -0.778121
vn 0.002654 0.280392 -0.959882
vn -0.435823 0.280058 -0.855351
vn -0.778121 0.280392 -0.562056
vn -0.959882 0.280392 -0.002655
vn -0.855351 0.280058 0.435823
vn -0.562057 0.280392 0.778121
vn -0.002655 0.280392 0.959882
vn 0.435823 0.280058 0.855351
vn 0.913833 0.271394 0.302082
vn 0.913834 0.271394 -0.302082
vn 0.562057 -0.280392 -0.778121
vn 0.002655 -0.280392 -0.959882
vn -0.435823 -0.280058 -0.855351
vn -0.778121 -0.280392 -0.562057
vn -0.959882 -0.280392 -0.002655
vn -0.855351 -0.280058 0.435823
vn -0.562057 -0.280392 0.778121
vn -0.002655 -0.280392 0.959882
vn 0.435823 -0.280058 0.855351
vn 0.913833 -0.271394 0.302082
vn 0.913834 -0.271394 -0.302082
vn 0.382755 -0.760573 -0.524431
vn -0.001402 -0.760573 -0.649251
vn -0.295614 -0.758953 -0.580175
vn -0.524431 -0.760572 -0.382755
vn -0.649251 -0.760573 0.001402
vn -0.580175 -0.758953 0.295614
vn -0.382755 -0.760573 0.524431
vn 0.001402 -0.760573 0.649251
vn 0.295614 -0.758953 0.580175
vn 0.635136 -0.745035 0.203778
vn 0.635136 -0.745035 -0.203778
vn -0.008424 -0.999794 0.018471
vn -0.004041 -0.999794 0.019895
vn 0.003338 -0.999973 0.006552
vn 0.018471 -0.999794 0.008425
vn 0.019895 -0.999794 0.004042
vn 0.006552 -0.999973 -0.003338
vn 0.008425 -0.999794 -0.018471
vn 0.004041 -0.999794 -0.019895
vn -0.003338 -0.999973 -0.006552
vn 0.016978 -0.999853 -0.002293
vn 0.016978 -0.999853 0.002293
vn -0.375307 -0.771802 0.513290
vn 0.001926 -0.771802 0.635860
vn 0.284360 -0.779537 0.558087
vn 0.513290 -0.771802 0.375307
vn 0.635860 -0.771802 -0.001926
vn 0.558088 -0.779537 -0.284360
vn 0.375307 -0.771802 -0.513290
vn -0.001926 -0.771802 -0.635860
vn -0.284360 -0.779537 -0.558088
vn -0.594618 -0.781339 -0.189577
vn -0.594618 -0.781339 0.189577
vn -0.026038 0.400260 -0.916032
vn -0.026038 0.400260 -0.916032
vn -0.026038 0.400260 -0.916032
vn -0.026039 0.400260 -0.916032
vn -0.026039 0.400260 -0.916032
vn -0.026038 0.400260 -0.916032
vn -0.026038 0.400260 -0.916032
vn -0.026038 0.400260 -0.916032
vn -0.026038 0.400260 -0.916032
vn -0.026038 0.400260 -0.916032
vn -0.026038 0.400260 -0.916032
vn -0.026038 0.400260 -0.916032
vn -0.026038 0.400260 -0.916032
vn -0.026038 0.400260 -0.916032
vn -0.026038 0.400260 -0.916032
vn -0.026038 0.400260 -0.916032
vn -0.026038 0.400260 -0.916032
vn -0.026038 0.400260 -0.916032
vn -0.026038 0.400260 -0.916032
vn -0.026039 0.400260 -0.916032
vn -0.026038 0.400260 -0.916032
vn -0.026039 0.400260 -0.916032
vn -0.026039 0.400260 -0.916032
vn -0.026039 0.400260 -0.916032
vn -0.916032 0.400260 0.026038
vn -0.916032 0.400260 0.026038
vn -0.916032 0.400260 0.026038
vn -0.916032 0.400260 0.026038
vn -0.916032 0.400260 0.026038
vn -0.916032 0.400260 0.026038
vn -0.916032 0.400260 0.026038
vn -0.916032 0.400260 0.026038
vn -0.916032 0.400260 0.026038
vn -0.916032 0.400260 0.026038
vn -0.916032 0.400260 0.026038
vn -0.916032 0.400260 0.026038
vn -0.916032 0.400260 0.026038
vn -0.916032 0.400260 0.026038
vn -0.916032 0.400260 0.026038
vn -0.916032 0.400260 0.026038
vn -0.916032 0.400260 0.026038
vn -0.916032 0.400260 0.026038
vn -0.916032 0.400260 0.026038
vn -0.916032 0.400260 0.026038
vn -0.916032 0.400260 0.026038
vn -0.916032 0.400260 0.026038
vn -0.916032 0.400260 0.026038
vn -0.916032 0.400260 0.026038
vn 0.026038 0.400260 0.916032
vn 0.026038 0.400260 0.916032
vn 0.026038 0.400260 0.916032
vn 0.026039 0.400260 0.916032
vn 0.026039 0.400260 0.916032
vn 0.026038 0.400260 0.916032
vn 0.026038 0.400260 0.916032
vn 0.026038 0.400260 0.916032
vn 0.026038 0.400260 0.916032
vn 0.026038 0.400260 0.916032
vn 0.026038 0.400260 0.916032
vn 0.026038 0.400260 0.916032
vn 0.026038 0.400260 0.916032
vn 0.026038 0.400260 0.916032
vn 0.026038 0.400260 0.916032
vn 0.026038 0.400260 0.916032
vn 0.026038 0.400260 0.916032
vn 0.026038 0.400260 0.916032
vn 0.026038 0.400260 0.916032
vn 0.026039 0.400260 0.916032
vn 0.026038 0.400260 0.916032
vn 0.026039 0.400260 0.916032
vn 0.026039 0.400260 0.916032
vn 0.026039 0.400260 0.916032
vn 0.916032 0.400260 -0.026038
vn 0.916032 0.400260 -0.026038
vn 0.916032 0.400260 -0.026038
vn 0.916032 0.400260 -0.026038
vn 0.916032 0.400260 -0.026038
vn 0.916032 0.400260 -0.026038
vn 0.916032 0.400260 -0.026038
vn 0.916032 0.400260 -0.026038
vn 0.916032 0.400260 -0.026038
vn 0.916032 0.400260 -0.026038
vn 0.916032 0.400260 -0.026038
vn 0.916032 0.400260 -0.026038
vn 0.916032 0.400260 -0.026038
vn 0.916032 0.400260 -0.026038
vn 0.916032 0.400260 -0.026038
vn 0.916032 0.400260 -0.026038
vn 0.916032 0.400260 -0.026038
vn 0.916032 0.400260 -0.026038
vn 0.916032 0.400260 -0.026038
vn 0.916032 0.400260 -0.026038
vn 0.916032 0.400260 -0.026038
vn 0.916032 0.400260 -0.026038
vn 0.916032 0.400260 -0.026038
vn 0.916032 0.400260 -0.026038
s off
g pPyramid4
usemtl phong3SG
f 1/1/1 4/4/2 3/3/3 2/2/4
f 1/5/5 2/6/6 5/10/7
f 2/6/8 3/7/9 5/10/10
f 3/7/11 4/8/12 5/10/13
f 4/8/14 1/9/15 5/10/16
s 1
f 7/11/17 6/12/18 17/13/19 18/14/20
f 8/15/21 7/11/17 18/14/20 19/16/22
f 9/17/23 8/15/21 19/16/22 20/18/24
f 10/19/25 9/17/23 20/18/24 21/20/26
f 11/21/27 10/19/25 21/20/26 22/22/28
f 12/23/29 11/21/27 22/22/28 23/24/30
f 13/25/31 12/23/29 23/24/30 24/26/32
f 14/27/33 13/25/31 24/26/32 25/28/34
f 15/29/35 14/27/33 25/28/34 26/30/36
f 16/31/37 15/29/35 26/30/36 27/32/38
f 6/33/18 16/31/37 27/32/38 17/34/19
f 18/14/20 17/13/19 28/35/39 29/36/40
f 19/16/22 18/14/20 29/36/40 30/37/41
f 20/18/24 19/16/22 30/37/41 31/38/42
f 21/20/26 20/18/24 31/38/42 32/39/43
f 22/22/28 21/20/26 32/39/43 33/40/44
f 23/24/30 22/22/28 33/40/44 34/41/45
f 24/26/32 23/24/30 34/41/45 35/42/46
f 25/28/34 24/26/32 35/42/46 36/43/47
f 26/30/36 25/28/34 36/43/47 37/44/48
f 27/32/38 26/30/36 37/44/48 38/45/49
f 17/34/19 27/32/38 38/45/49 28/46/39
f 29/36/40 28/35/39 39/47/50 40/48/51
f 30/37/41 29/36/40 40/48/51 41/49/52
f 31/38/42 30/37/41 41/49/52 42/50/53
f 32/39/43 31/38/42 42/50/53 43/51/54
f 33/40/44 32/39/43 43/51/54 44/52/55
f 34/41/45 33/40/44 44/52/55 45/53/56
f 35/42/46 34/41/45 45/53/56 46/54/57
f 36/43/47 35/42/46 46/54/57 47/55/58
f 37/44/48 36/43/47 47/55/58 48/56/59
f 38/45/49 37/44/48 48/56/59 49/57/60
f 28/46/39 38/45/49 49/57/60 39/58/50
f 40/48/51 39/47/50 50/59/61 51/60/62
f 41/49/52 40/48/51 51/60/62 52/61/63
f 42/50/53 41/49/52 52/61/63 53/62/64
f 43/51/54 42/50/53 53/62/64 54/63/65
f 44/52/55 43/51/54 54/63/65 55/64/66
f 45/53/56 44/52/55 55/64/66 56/65/67
f 46/54/57 45/53/56 56/65/67 57/66/68
f 47/55/58 46/54/57 57/66/68 58/67/69
f 48/56/59 47/55/58 58/67/69 59/68/70
f 49/57/60 48/56/59 59/68/70 60/69/71
f 39/58/50 49/57/60 60/69/71 50/70/61
f 51/60/62 50/59/61 61/71/72 62/72/73
f 52/61/63 51/60/62 62/72/73 63/73/74
f 53/62/64 52/61/63 63/73/74 64/74/75
f 54/63/65 53/62/64 64/74/75 65/75/76
f 55/64/66 54/63/65 65/75/76 66/76/77
f 56/65/67 55/64/66 66/76/77 67/77/78
f 57/66/68 56/65/67 67/77/78 68/78/79
f 58/67/69 57/66/68 68/78/79 69/79/80
f 59/68/70 58/67/69 69/79/80 70/80/81
f 60/69/71 59/68/70 70/80/81 71/81/82
f 50/70/61 60/69/71 71/81/82 61/82/72
f 62/72/73 61/71/72 72/83/83 73/84/84
f 63/73/74 62/72/73 73/84/84 74/85/85
f 64/74/75 63/73/74 74/85/85 75/86/86
f 65/75/76 64/74/75 75/86/86 76/87/87
f 66/76/77 65/75/76 76/87/87 77/88/88
f 67/77/78 66/76/77 77/88/88 78/89/89
f 68/78/79 67/77/78 78/89/89 79/90/90
f 69/79/80 68/78/79 79/90/90 80/91/91
f 70/80/81 69/79/80 80/91/91 81/92/92
f 71/81/82 70/80/81 81/92/92 82/93/93
f 61/82/72 71/81/82 82/93/93 72/94/83
f 73/84/84 72/83/83 83/95/94 84/96/95
f 74/85/85 73/84/84 84/96/95 85/97/96
f 75/86/86 74/85/85 85/97/96 86/98/97
f 76/87/87 75/86/86 86/98/97 87/99/98
f 77/88/88 76/87/87 87/99/98 88/100/99
f 78/89/89 77/88/88 88/100/99 89/101/100
f 79/90/90 78/89/89 89/101/100 90/102/101
f 80/91/91 79/90/90 90/102/101 91/103/102
f 81/92/92 80/91/91 91/103/102 92/104/103
f 82/93/93 81/92/92 92/104/103 93/105/104
f 72/94/83 82/93/93 93/105/104 83/106/94
f 84/96/95 83/95/94 94/107/105 95/108/106
f 85/97/96 84/96/95 95/108/106 96/109/107
f 86/98/97 85/97/96 96/109/107 97/110/108
f 87/99/98 86/98/97 97/110/108 98/111/109
f 88/100/99 87/99/98 98/111/109 99/112/110
f 89/101/100 88/100/99 99/112/110 100/113/111
f 90/102/101 89/101/100 100/113/111 101/114/112
f 91/103/102 90/102/101 101/114/112 102/115/113
f 92/104/103 91/103/102 102/115/113 103/116/114
f 93/105/104 92/104/103 103/116/114 104/117/115
f 83/106/94 93/105/104 104/117/115 94/118/105
f 95/108/106 94/107/105 6/119/18 7/120/17
f 96/109/107 95/108/106 7/120/17 8/121/21
f 97/110/108 96/109/107 8/121/21 9/122/23
f 98/111/109 97/110/108 9/122/23 10/123/25
f 99/112/110 98/111/109 10/123/25 11/124/27
f 100/113/111 99/112/110 11/124/27 12/125/29
f 101/114/112 100/113/111 12/125/29 13/126/31
f 102/115/113 101/114/112 13/126/31 14/127/33
f 103/116/114 102/115/113 14/127/33 15/128/35
f 104/117/115 103/116/114 15/128/35 16/129/37
f 94/118/105 104/117/115 16/129/37 6/130/18
s off
usemtl phong2SG
f 105/131/116 106/132/117 107/133/118
f 108/134/119 109/135/120 110/136/121
f 111/137/122 112/138/123 113/139/124
f 114/140/125 115/141/126 116/142/127
f 117/143/128 118/144/129 119/145/130
f 120/146/131 121/147/132 122/148/133
f 123/149/134 124/150/135 125/151/136
f 126/152/137 127/153/138 128/154/139
f 129/155/140 130/156/141 131/157/142
f 132/158/143 133/159/144 134/160/145
f 135/161/146 136/162/147 137/163/148
f 138/164/149 139/165/150 140/166/151
f 141/167/152 142/168/153 143/169/154
f 144/170/155 145/171/156 146/172/157
f 147/173/158 148/174/159 149/175/160
f 150/176/161 151/177/162 152/178/163
f 153/179/164 154/180/165 155/181/166
f 156/182/167 157/183/168 158/184/169
f 159/185/170 160/186/171 161/187/172
f 162/188/173 163/189/174 164/190/175
f 165/191/176 166/192/177 167/193/178
f 168/194/179 169/195/180 170/196/181
f 171/197/182 172/198/183 173/199/184
f 174/200/185 175/201/186 176/202/187
f 177/203/188 178/204/189 179/205/190
f 180/206/191 181/207/192 182/208/193
f 183/209/194 184/210/195 185/211/196
f 186/212/197 187/213/198 188/214/199
f 189/215/200 190/216/201 191/217/202
f 192/218/203 193/219/204 194/220/205
f 195/221/206 196/222/207 197/223/208
f 198/224/209 199/225/210 200/226/211
