# This file uses centimeters as units for non-parametric coordinates.

mtllib BuildingOpenV1.mtl
g default
v -2.014236 -0.011313 2.757632
v 2.014235 -0.011313 2.757632
v -2.014236 2.407515 2.757632
v 2.014235 2.407515 2.757632
v -2.014236 2.407515 2.474298
v 2.014236 2.407515 2.474298
v -2.014236 -0.011313 2.474298
v 2.014236 -0.011313 2.474298
v -2.014236 2.604145 2.757632
v 2.014236 2.604145 2.757632
v 2.014236 2.604145 2.474298
v -2.014236 2.604145 2.474298
v -2.014236 2.407515 0.035636
v 2.014236 2.407515 0.035636
v -2.014236 3.245219 0.035636
v 2.014236 3.245219 0.035636
v -2.014236 -0.011313 -2.686359
v 2.014235 -0.011313 -2.686359
v 2.014235 2.407515 -2.686359
v -2.014236 2.407515 -2.686359
v -2.014236 2.604145 -2.686359
v 2.014236 2.604145 -2.686359
v 2.014236 2.604145 -2.403025
v -2.014236 2.604145 -2.403025
v -2.014236 2.407515 -2.403025
v 2.014236 2.407515 -2.403025
v 2.014236 -0.011313 -2.403025
v -2.014236 -0.011313 -2.403025
v -2.014236 2.407515 0.035636
v 2.014236 2.407515 0.035636
v -2.014236 3.245313 0.035636
v 2.014236 3.245313 0.035636
vt 0.375000 0.000000
vt 0.625000 0.000000
vt 0.375000 0.250000
vt 0.625000 0.250000
vt 0.375000 0.500000
vt 0.625000 0.500000
vt 0.375000 0.750000
vt 0.625000 0.750000
vt 0.375000 1.000000
vt 0.625000 1.000000
vt 0.875000 0.000000
vt 0.875000 0.250000
vt 0.125000 0.000000
vt 0.125000 0.250000
vt 0.375000 0.250000
vt 0.625000 0.250000
vt 0.625000 0.500000
vt 0.375000 0.500000
vt 0.625000 0.500000
vt 0.375000 0.500000
vt 0.375000 0.500000
vt 0.625000 0.500000
vt 0.375000 0.000000
vt 0.625000 0.000000
vt 0.625000 0.250000
vt 0.375000 0.250000
vt 0.375000 0.250000
vt 0.625000 0.250000
vt 0.625000 0.500000
vt 0.375000 0.500000
vt 0.375000 0.500000
vt 0.625000 0.500000
vt 0.625000 0.750000
vt 0.375000 0.750000
vt 0.625000 1.000000
vt 0.375000 1.000000
vt 0.875000 0.000000
vt 0.875000 0.250000
vt 0.125000 0.000000
vt 0.125000 0.250000
vt 0.625000 0.500000
vt 0.375000 0.500000
vt 0.375000 0.500000
vt 0.625000 0.500000
vn 0.000000 0.000000 -1.000000
vn 0.000000 0.000000 -1.000000
vn 0.000000 0.000000 -1.000000
vn 0.000000 0.000000 -1.000000
vn 0.000000 1.000000 0.000000
vn 0.000000 0.973361 -0.229276
vn 0.000000 0.973361 -0.229276
vn 0.000000 1.000000 0.000000
vn 0.000000 0.000000 1.000000
vn 0.000000 0.000000 1.000000
vn 0.000000 0.000000 1.000000
vn 0.000000 0.000000 1.000000
vn 0.000000 -1.000000 -0.000000
vn 0.000000 -1.000000 -0.000000
vn 0.000000 -1.000000 -0.000000
vn 0.000000 -1.000000 -0.000000
vn 1.000000 0.000000 -0.000003
vn 1.000000 -0.000000 -0.000003
vn 1.000000 -0.000000 -0.000001
vn 1.000000 0.000000 -0.000003
vn -1.000000 0.000000 0.000000
vn -1.000000 0.000000 0.000000
vn -1.000000 0.000000 0.000000
vn -1.000000 0.000000 0.000000
vn 0.000000 0.000000 -1.000000
vn 0.000000 0.000000 -1.000000
vn 1.000000 -0.000003 -0.000002
vn 1.000000 -0.000000 -0.000000
vn 0.000000 0.000000 1.000000
vn 0.000000 0.000000 1.000000
vn 0.000000 0.000000 1.000000
vn 0.000000 0.000000 1.000000
vn -1.000000 0.000000 0.000000
vn -1.000000 0.000000 0.000000
vn 0.000000 -1.000000 0.000000
vn 0.000000 -1.000000 0.000000
vn 0.000000 -1.000000 0.000000
vn 0.000000 -1.000000 0.000000
vn -1.000000 0.000000 0.000000
vn -1.000000 0.000000 0.000000
vn 0.000000 0.967132 -0.254276
vn 0.000000 0.967132 -0.254276
vn 1.000000 0.000000 0.000000
vn 1.000000 0.000000 0.000000
vn 0.000000 0.000000 1.000000
vn 0.000000 0.000000 1.000000
vn 0.000000 0.000000 1.000000
vn 0.000000 0.000000 1.000000
vn 0.000000 1.000000 0.000000
vn 0.000000 1.000000 0.000000
vn 0.000000 0.973369 0.229244
vn 0.000000 0.973369 0.229244
vn 0.000000 0.000000 -1.000000
vn 0.000000 0.000000 -1.000000
vn 0.000000 0.000000 -1.000000
vn 0.000000 0.000000 -1.000000
vn 0.000000 -1.000000 0.000000
vn 0.000000 -1.000000 0.000000
vn 0.000000 -1.000000 0.000000
vn 0.000000 -1.000000 0.000000
vn 1.000000 0.000000 0.000003
vn 1.000000 0.000000 0.000003
vn 1.000000 -0.000000 0.000001
vn 1.000000 -0.000000 0.000003
vn -1.000000 0.000000 0.000000
vn -1.000000 0.000000 0.000000
vn -1.000000 0.000000 0.000000
vn -1.000000 0.000000 0.000000
vn 0.000000 0.000000 1.000000
vn 0.000000 0.000000 1.000000
vn 1.000000 -0.000000 0.000000
vn 1.000000 -0.000003 0.000002
vn 0.000000 0.000000 -1.000000
vn 0.000000 0.000000 -1.000000
vn 0.000000 0.000000 -1.000000
vn 0.000000 0.000000 -1.000000
vn -1.000000 0.000000 0.000000
vn -1.000000 0.000000 0.000000
vn 0.000000 -1.000000 0.000000
vn 0.000000 -1.000000 0.000000
vn 0.000000 -1.000000 0.000000
vn 0.000000 -1.000000 0.000000
vn -1.000000 0.000000 0.000000
vn -1.000000 0.000000 0.000000
vn 0.000000 0.967141 0.254241
vn 0.000000 0.967141 0.254241
vn 1.000000 0.000000 0.000000
vn 1.000000 0.000000 0.000000
s 1
g pCube9
usemtl phong3SG
f 17/1/1 20/3/2 19/4/3 18/2/4
s 2
f 21/15/5 24/18/6 23/17/7 22/16/8
s off
f 25/5/9 28/7/10 27/8/11 26/6/12
f 28/7/13 17/9/14 18/10/15 27/8/16
s 3
f 18/2/17 19/4/18 26/12/19 27/11/20
s 4
f 28/13/21 25/14/22 20/3/23 17/1/24
s 1
f 20/3/2 21/15/25 22/16/26 19/4/3
s 3
f 19/4/18 22/16/27 23/17/28 26/6/19
s off
f 30/19/29 32/22/30 31/21/31 29/20/32
s 4
f 25/5/22 24/18/33 21/15/34 20/3/23
s off
f 26/6/35 30/19/36 29/20/37 25/5/38
s 4
f 25/5/22 29/20/39 31/21/40 24/18/33
s 2
f 24/18/6 31/21/41 32/22/42 23/17/7
s 3
f 23/17/28 32/22/43 30/19/44 26/6/19
s 5
f 1/23/45 2/24/46 4/25/47 3/26/48
s 6
f 9/27/49 10/28/50 11/29/51 12/30/52
s off
f 5/31/53 6/32/54 8/33/55 7/34/56
f 7/34/57 8/33/58 2/35/59 1/36/60
s 7
f 2/24/61 8/37/62 6/38/63 4/25/64
s 8
f 7/39/65 1/23/66 3/26/67 5/40/68
s 5
f 3/26/48 4/25/47 10/28/69 9/27/70
s 7
f 4/25/64 6/32/63 11/29/71 10/28/72
s off
f 14/41/73 13/42/74 15/43/75 16/44/76
s 8
f 5/31/68 3/26/67 9/27/77 12/30/78
s off
f 6/32/79 5/31/80 13/42/81 14/41/82
s 8
f 5/31/68 12/30/78 15/43/83 13/42/84
s 6
f 12/30/52 11/29/51 16/44/85 15/43/86
s 7
f 11/29/71 6/32/63 14/41/87 16/44/88
