# This file uses centimeters as units for non-parametric coordinates.

mtllib BuildingV7.mtl
g default
v 0.504813 6.247731 -0.277954
v 0.504813 5.729884 0.239894
v 0.504813 5.729884 -0.277954
v 0.504813 5.729884 0.239894
v 0.504813 6.247731 -0.277954
v 0.504813 6.247731 0.239894
v 0.504813 5.497731 -0.277954
v 0.504813 4.979884 0.239894
v 0.504813 4.979884 -0.277954
v 0.504813 4.979884 0.239894
v 0.504813 5.497731 -0.277954
v 0.504813 5.497731 0.239894
v 0.504813 4.747731 -0.277954
v 0.504813 4.229884 0.239894
v 0.504813 4.229884 -0.277954
v 0.504813 4.229884 0.239894
v 0.504813 4.747731 -0.277954
v 0.504813 4.747731 0.239894
v 0.504813 3.997731 -0.277954
v 0.504813 3.479884 0.239894
v 0.504813 3.479884 -0.277954
v 0.504813 3.479884 0.239894
v 0.504813 3.997731 -0.277954
v 0.504813 3.997731 0.239894
v 0.504813 3.247731 -0.277954
v 0.504813 2.729884 0.239894
v 0.504813 2.729884 -0.277954
v 0.504813 2.729884 0.239894
v 0.504813 3.247731 -0.277954
v 0.504813 3.247731 0.239894
v 0.504813 2.497731 -0.277954
v 0.504813 1.979884 0.239894
v 0.504813 1.979884 -0.277954
v 0.504813 1.979884 0.239894
v 0.504813 2.497731 -0.277954
v 0.504813 2.497731 0.239894
v 0.504813 1.747731 -0.277954
v 0.504813 1.229884 0.239894
v 0.504813 1.229884 -0.277954
v 0.504813 1.229884 0.239894
v 0.504813 1.747731 -0.277954
v 0.504813 1.747731 0.239894
v 0.504813 1.022731 -0.277954
v 0.504813 0.504884 0.239894
v 0.504813 0.504884 -0.277954
v 0.504813 0.504884 0.239894
v 0.504813 1.022731 -0.277954
v 0.504813 1.022731 0.239894
v 0.277954 6.247731 0.504813
v -0.239894 5.729884 0.504813
v 0.277954 5.729884 0.504813
v -0.239894 5.729884 0.504813
v 0.277954 6.247731 0.504813
v -0.239894 6.247731 0.504813
v 0.277954 5.497731 0.504813
v -0.239894 4.979884 0.504813
v 0.277954 4.979884 0.504813
v -0.239894 4.979884 0.504813
v 0.277954 5.497731 0.504813
v -0.239894 5.497731 0.504813
v 0.277954 4.747731 0.504813
v -0.239894 4.229884 0.504813
v 0.277954 4.229884 0.504813
v -0.239894 4.229884 0.504813
v 0.277954 4.747731 0.504813
v -0.239894 4.747731 0.504813
v 0.277954 3.997731 0.504813
v -0.239894 3.479884 0.504813
v 0.277954 3.479884 0.504813
v -0.239894 3.479884 0.504813
v 0.277954 3.997731 0.504813
v -0.239894 3.997731 0.504813
v 0.277954 3.247731 0.504813
v -0.239894 2.729884 0.504813
v 0.277954 2.729884 0.504813
v -0.239894 2.729884 0.504813
v 0.277954 3.247731 0.504813
v -0.239894 3.247731 0.504813
v 0.277954 2.497731 0.504813
v -0.239894 1.979884 0.504813
v 0.277954 1.979884 0.504813
v -0.239894 1.979884 0.504813
v 0.277954 2.497731 0.504813
v -0.239894 2.497731 0.504813
v 0.277954 1.747731 0.504813
v -0.239894 1.229884 0.504813
v 0.277954 1.229884 0.504813
v -0.239894 1.229884 0.504813
v 0.277954 1.747731 0.504813
v -0.239894 1.747731 0.504813
v 0.277954 1.022731 0.504813
v -0.239894 0.504884 0.504813
v 0.277954 0.504884 0.504813
v -0.239894 0.504884 0.504813
v 0.277954 1.022731 0.504813
v -0.239894 1.022731 0.504813
v -0.277954 6.247731 -0.504813
v 0.239894 5.729884 -0.504813
v -0.277954 5.729884 -0.504813
v 0.239894 5.729884 -0.504813
v -0.277954 6.247731 -0.504813
v 0.239894 6.247731 -0.504813
v -0.277954 5.497731 -0.504813
v 0.239894 4.979884 -0.504813
v -0.277954 4.979884 -0.504813
v 0.239894 4.979884 -0.504813
v -0.277954 5.497731 -0.504813
v 0.239894 5.497731 -0.504813
v -0.277954 4.747731 -0.504813
v 0.239894 4.229884 -0.504813
v -0.277954 4.229884 -0.504813
v 0.239894 4.229884 -0.504813
v -0.277954 4.747731 -0.504813
v 0.239894 4.747731 -0.504813
v -0.277954 3.997731 -0.504813
v 0.239894 3.479884 -0.504813
v -0.277954 3.479884 -0.504813
v 0.239894 3.479884 -0.504813
v -0.277954 3.997731 -0.504813
v 0.239894 3.997731 -0.504813
v -0.277954 3.247731 -0.504813
v 0.239894 2.729884 -0.504813
v -0.277954 2.729884 -0.504813
v 0.239894 2.729884 -0.504813
v -0.277954 3.247731 -0.504813
v 0.239894 3.247731 -0.504813
v -0.277954 2.497731 -0.504813
v 0.239894 1.979884 -0.504813
v -0.277954 1.979884 -0.504813
v 0.239894 1.979884 -0.504813
v -0.277954 2.497731 -0.504813
v 0.239894 2.497731 -0.504813
v -0.277954 1.747731 -0.504813
v 0.239894 1.229884 -0.504813
v -0.277954 1.229884 -0.504813
v 0.239894 1.229884 -0.504813
v -0.277954 1.747731 -0.504813
v 0.239894 1.747731 -0.504813
v -0.277954 1.022731 -0.504813
v 0.239894 0.504884 -0.504813
v -0.277954 0.504884 -0.504813
v 0.239894 0.504884 -0.504813
v -0.277954 1.022731 -0.504813
v 0.239894 1.022731 -0.504813
v -0.500000 -0.066574 0.500000
v 0.500000 -0.066574 0.500000
v -0.500000 6.645906 0.500000
v 0.500000 6.645906 0.500000
v -0.500000 6.645906 -0.500000
v 0.500000 6.645906 -0.500000
v -0.500000 -0.066574 -0.500000
v 0.500000 -0.066574 -0.500000
v -0.504813 6.247731 0.277954
v -0.504813 5.729884 -0.239894
v -0.504813 5.729884 0.277954
v -0.504813 5.729884 -0.239894
v -0.504813 6.247731 0.277954
v -0.504813 6.247731 -0.239894
v -0.504813 5.497731 0.277954
v -0.504813 4.979884 -0.239894
v -0.504813 4.979884 0.277954
v -0.504813 4.979884 -0.239894
v -0.504813 5.497731 0.277954
v -0.504813 5.497731 -0.239894
v -0.504813 4.747731 0.277954
v -0.504813 4.229884 -0.239894
v -0.504813 4.229884 0.277954
v -0.504813 4.229884 -0.239894
v -0.504813 4.747731 0.277954
v -0.504813 4.747731 -0.239894
v -0.504813 3.997731 0.277954
v -0.504813 3.479884 -0.239894
v -0.504813 3.479884 0.277954
v -0.504813 3.479884 -0.239894
v -0.504813 3.997731 0.277954
v -0.504813 3.997731 -0.239894
v -0.504813 3.247731 0.277954
v -0.504813 2.729884 -0.239894
v -0.504813 2.729884 0.277954
v -0.504813 2.729884 -0.239894
v -0.504813 3.247731 0.277954
v -0.504813 3.247731 -0.239894
v -0.504813 2.497731 0.277954
v -0.504813 1.979884 -0.239894
v -0.504813 1.979884 0.277954
v -0.504813 1.979884 -0.239894
v -0.504813 2.497731 0.277954
v -0.504813 2.497731 -0.239894
v -0.504813 1.747731 0.277954
v -0.504813 1.229884 -0.239894
v -0.504813 1.229884 0.277954
v -0.504813 1.229884 -0.239894
v -0.504813 1.747731 0.277954
v -0.504813 1.747731 -0.239894
v -0.504813 1.022731 0.277954
v -0.504813 0.504884 -0.239894
v -0.504813 0.504884 0.277954
v -0.504813 0.504884 -0.239894
v -0.504813 1.022731 0.277954
v -0.504813 1.022731 -0.239894
vt 0.000000 1.000000
vt 1.000000 0.000000
vt 1.000000 1.000000
vt 0.000000 1.000000
vt 1.000000 0.000000
vt 1.000000 1.000000
vt 0.000000 1.000000
vt 1.000000 0.000000
vt 1.000000 1.000000
vt 0.000000 1.000000
vt 1.000000 0.000000
vt 1.000000 1.000000
vt 0.000000 1.000000
vt 1.000000 0.000000
vt 1.000000 1.000000
vt 0.000000 1.000000
vt 1.000000 0.000000
vt 1.000000 1.000000
vt 0.000000 1.000000
vt 1.000000 0.000000
vt 1.000000 1.000000
vt 0.000000 1.000000
vt 1.000000 0.000000
vt 1.000000 1.000000
vt 0.000000 1.000000
vt 1.000000 0.000000
vt 1.000000 1.000000
vt 0.000000 1.000000
vt 1.000000 0.000000
vt 1.000000 1.000000
vt 0.000000 1.000000
vt 1.000000 0.000000
vt 1.000000 1.000000
vt 0.000000 1.000000
vt 1.000000 0.000000
vt 1.000000 1.000000
vt 0.000000 1.000000
vt 1.000000 0.000000
vt 1.000000 1.000000
vt 0.000000 1.000000
vt 1.000000 0.000000
vt 1.000000 1.000000
vt 0.000000 1.000000
vt 1.000000 0.000000
vt 1.000000 1.000000
vt 0.000000 1.000000
vt 1.000000 0.000000
vt 1.000000 1.000000
vt 0.000000 1.000000
vt 1.000000 0.000000
vt 1.000000 1.000000
vt 0.000000 1.000000
vt 1.000000 0.000000
vt 1.000000 1.000000
vt 0.000000 1.000000
vt 1.000000 0.000000
vt 1.000000 1.000000
vt 0.000000 1.000000
vt 1.000000 0.000000
vt 1.000000 1.000000
vt 0.000000 1.000000
vt 1.000000 0.000000
vt 1.000000 1.000000
vt 0.000000 1.000000
vt 1.000000 0.000000
vt 1.000000 1.000000
vt 0.000000 1.000000
vt 1.000000 0.000000
vt 1.000000 1.000000
vt 0.000000 1.000000
vt 1.000000 0.000000
vt 1.000000 1.000000
vt 0.000000 1.000000
vt 1.000000 0.000000
vt 1.000000 1.000000
vt 0.000000 1.000000
vt 1.000000 0.000000
vt 1.000000 1.000000
vt 0.000000 1.000000
vt 1.000000 0.000000
vt 1.000000 1.000000
vt 0.000000 1.000000
vt 1.000000 0.000000
vt 1.000000 1.000000
vt 0.000000 1.000000
vt 1.000000 0.000000
vt 1.000000 1.000000
vt 0.000000 1.000000
vt 1.000000 0.000000
vt 1.000000 1.000000
vt 0.000000 1.000000
vt 1.000000 0.000000
vt 1.000000 1.000000
vt 0.000000 1.000000
vt 1.000000 0.000000
vt 1.000000 1.000000
vt 0.000000 1.000000
vt 1.000000 0.000000
vt 1.000000 1.000000
vt 0.000000 1.000000
vt 1.000000 0.000000
vt 1.000000 1.000000
vt 0.000000 1.000000
vt 1.000000 0.000000
vt 1.000000 1.000000
vt 0.000000 1.000000
vt 1.000000 0.000000
vt 1.000000 1.000000
vt 0.000000 1.000000
vt 1.000000 0.000000
vt 1.000000 1.000000
vt 0.000000 1.000000
vt 1.000000 0.000000
vt 1.000000 1.000000
vt 0.000000 1.000000
vt 1.000000 0.000000
vt 1.000000 1.000000
vt 0.000000 1.000000
vt 1.000000 0.000000
vt 1.000000 1.000000
vt 0.000000 1.000000
vt 1.000000 0.000000
vt 1.000000 1.000000
vt 0.000000 1.000000
vt 1.000000 0.000000
vt 1.000000 1.000000
vt 0.000000 1.000000
vt 1.000000 0.000000
vt 1.000000 1.000000
vt 0.000000 1.000000
vt 1.000000 0.000000
vt 1.000000 1.000000
vt 0.000000 1.000000
vt 1.000000 0.000000
vt 1.000000 1.000000
vt 0.000000 1.000000
vt 1.000000 0.000000
vt 1.000000 1.000000
vt 0.000000 1.000000
vt 1.000000 0.000000
vt 1.000000 1.000000
vt 0.000000 1.000000
vt 1.000000 0.000000
vt 1.000000 1.000000
vt 0.375000 0.000000
vt 0.625000 0.000000
vt 0.625000 0.250000
vt 0.375000 0.250000
vt 0.625000 0.500000
vt 0.375000 0.500000
vt 0.625000 0.750000
vt 0.375000 0.750000
vt 0.625000 1.000000
vt 0.375000 1.000000
vt 0.875000 0.000000
vt 0.875000 0.250000
vt 0.125000 0.000000
vt 0.125000 0.250000
vt 0.000000 1.000000
vt 1.000000 0.000000
vt 1.000000 1.000000
vt 0.000000 1.000000
vt 1.000000 0.000000
vt 1.000000 1.000000
vt 0.000000 1.000000
vt 1.000000 0.000000
vt 1.000000 1.000000
vt 0.000000 1.000000
vt 1.000000 0.000000
vt 1.000000 1.000000
vt 0.000000 1.000000
vt 1.000000 0.000000
vt 1.000000 1.000000
vt 0.000000 1.000000
vt 1.000000 0.000000
vt 1.000000 1.000000
vt 0.000000 1.000000
vt 1.000000 0.000000
vt 1.000000 1.000000
vt 0.000000 1.000000
vt 1.000000 0.000000
vt 1.000000 1.000000
vt 0.000000 1.000000
vt 1.000000 0.000000
vt 1.000000 1.000000
vt 0.000000 1.000000
vt 1.000000 0.000000
vt 1.000000 1.000000
vt 0.000000 1.000000
vt 1.000000 0.000000
vt 1.000000 1.000000
vt 0.000000 1.000000
vt 1.000000 0.000000
vt 1.000000 1.000000
vt 0.000000 1.000000
vt 1.000000 0.000000
vt 1.000000 1.000000
vt 0.000000 1.000000
vt 1.000000 0.000000
vt 1.000000 1.000000
vt 0.000000 1.000000
vt 1.000000 0.000000
vt 1.000000 1.000000
vt 0.000000 1.000000
vt 1.000000 0.000000
vt 1.000000 1.000000
vn 1.000000 0.000000 0.000000
vn 1.000000 0.000000 0.000000
vn 1.000000 0.000000 0.000000
vn 1.000000 0.000000 0.000000
vn 1.000000 0.000000 0.000000
vn 1.000000 0.000000 0.000000
vn 1.000000 0.000000 0.000000
vn 1.000000 0.000000 0.000000
vn 1.000000 0.000000 0.000000
vn 1.000000 0.000000 0.000000
vn 1.000000 0.000000 0.000000
vn 1.000000 0.000000 0.000000
vn 1.000000 0.000000 0.000000
vn 1.000000 0.000000 0.000000
vn 1.000000 0.000000 0.000000
vn 1.000000 0.000000 0.000000
vn 1.000000 0.000000 0.000000
vn 1.000000 0.000000 0.000000
vn 1.000000 0.000000 0.000000
vn 1.000000 0.000000 0.000000
vn 1.000000 0.000000 0.000000
vn 1.000000 0.000000 0.000000
vn 1.000000 0.000000 0.000000
vn 1.000000 0.000000 0.000000
vn 1.000000 0.000000 0.000000
vn 1.000000 0.000000 0.000000
vn 1.000000 0.000000 0.000000
vn 1.000000 0.000000 0.000000
vn 1.000000 0.000000 0.000000
vn 1.000000 0.000000 0.000000
vn 1.000000 0.000000 0.000000
vn 1.000000 0.000000 0.000000
vn 1.000000 0.000000 0.000000
vn 1.000000 0.000000 0.000000
vn 1.000000 0.000000 0.000000
vn 1.000000 0.000000 0.000000
vn 1.000000 0.000000 0.000000
vn 1.000000 0.000000 0.000000
vn 1.000000 0.000000 0.000000
vn 1.000000 0.000000 0.000000
vn 1.000000 0.000000 0.000000
vn 1.000000 0.000000 0.000000
vn 1.000000 0.000000 0.000000
vn 1.000000 0.000000 0.000000
vn 1.000000 0.000000 0.000000
vn 1.000000 0.000000 0.000000
vn 1.000000 0.000000 0.000000
vn 1.000000 0.000000 0.000000
vn 0.000000 0.000000 1.000000
vn 0.000000 0.000000 1.000000
vn 0.000000 0.000000 1.000000
vn 0.000000 0.000000 1.000000
vn 0.000000 0.000000 1.000000
vn 0.000000 0.000000 1.000000
vn 0.000000 0.000000 1.000000
vn 0.000000 0.000000 1.000000
vn 0.000000 0.000000 1.000000
vn 0.000000 0.000000 1.000000
vn 0.000000 0.000000 1.000000
vn 0.000000 0.000000 1.000000
vn 0.000000 0.000000 1.000000
vn 0.000000 0.000000 1.000000
vn 0.000000 0.000000 1.000000
vn 0.000000 0.000000 1.000000
vn 0.000000 0.000000 1.000000
vn 0.000000 0.000000 1.000000
vn 0.000000 0.000000 1.000000
vn 0.000000 0.000000 1.000000
vn 0.000000 0.000000 1.000000
vn 0.000000 0.000000 1.000000
vn 0.000000 0.000000 1.000000
vn 0.000000 0.000000 1.000000
vn 0.000000 0.000000 1.000000
vn 0.000000 0.000000 1.000000
vn 0.000000 0.000000 1.000000
vn 0.000000 0.000000 1.000000
vn 0.000000 0.000000 1.000000
vn 0.000000 0.000000 1.000000
vn 0.000000 0.000000 1.000000
vn 0.000000 0.000000 1.000000
vn 0.000000 0.000000 1.000000
vn 0.000000 0.000000 1.000000
vn 0.000000 0.000000 1.000000
vn 0.000000 0.000000 1.000000
vn 0.000000 0.000000 1.000000
vn 0.000000 0.000000 1.000000
vn 0.000000 0.000000 1.000000
vn 0.000000 0.000000 1.000000
vn 0.000000 0.000000 1.000000
vn 0.000000 0.000000 1.000000
vn 0.000000 0.000000 1.000000
vn 0.000000 0.000000 1.000000
vn 0.000000 0.000000 1.000000
vn 0.000000 0.000000 1.000000
vn 0.000000 0.000000 1.000000
vn 0.000000 0.000000 1.000000
vn 0.000000 0.000000 -1.000000
vn 0.000000 0.000000 -1.000000
vn 0.000000 0.000000 -1.000000
vn 0.000000 0.000000 -1.000000
vn 0.000000 0.000000 -1.000000
vn 0.000000 0.000000 -1.000000
vn 0.000000 0.000000 -1.000000
vn 0.000000 0.000000 -1.000000
vn 0.000000 0.000000 -1.000000
vn 0.000000 0.000000 -1.000000
vn 0.000000 0.000000 -1.000000
vn 0.000000 0.000000 -1.000000
vn 0.000000 0.000000 -1.000000
vn 0.000000 0.000000 -1.000000
vn 0.000000 0.000000 -1.000000
vn 0.000000 0.000000 -1.000000
vn 0.000000 0.000000 -1.000000
vn 0.000000 0.000000 -1.000000
vn 0.000000 0.000000 -1.000000
vn 0.000000 0.000000 -1.000000
vn 0.000000 0.000000 -1.000000
vn 0.000000 0.000000 -1.000000
vn 0.000000 0.000000 -1.000000
vn 0.000000 0.000000 -1.000000
vn 0.000000 0.000000 -1.000000
vn 0.000000 0.000000 -1.000000
vn 0.000000 0.000000 -1.000000
vn 0.000000 0.000000 -1.000000
vn 0.000000 0.000000 -1.000000
vn 0.000000 0.000000 -1.000000
vn 0.000000 0.000000 -1.000000
vn 0.000000 0.000000 -1.000000
vn 0.000000 0.000000 -1.000000
vn 0.000000 0.000000 -1.000000
vn 0.000000 0.000000 -1.000000
vn 0.000000 0.000000 -1.000000
vn 0.000000 0.000000 -1.000000
vn 0.000000 0.000000 -1.000000
vn 0.000000 0.000000 -1.000000
vn 0.000000 0.000000 -1.000000
vn 0.000000 0.000000 -1.000000
vn 0.000000 0.000000 -1.000000
vn 0.000000 0.000000 -1.000000
vn 0.000000 0.000000 -1.000000
vn 0.000000 0.000000 -1.000000
vn 0.000000 0.000000 -1.000000
vn 0.000000 0.000000 -1.000000
vn 0.000000 0.000000 -1.000000
vn 0.000000 0.000000 1.000000
vn 0.000000 0.000000 1.000000
vn 0.000000 0.000000 1.000000
vn 0.000000 0.000000 1.000000
vn 0.000000 1.000000 0.000000
vn 0.000000 1.000000 0.000000
vn 0.000000 1.000000 0.000000
vn 0.000000 1.000000 0.000000
vn 0.000000 0.000000 -1.000000
vn 0.000000 0.000000 -1.000000
vn 0.000000 0.000000 -1.000000
vn 0.000000 0.000000 -1.000000
vn 0.000000 -1.000000 0.000000
vn 0.000000 -1.000000 0.000000
vn 0.000000 -1.000000 0.000000
vn 0.000000 -1.000000 0.000000
vn 1.000000 0.000000 0.000000
vn 1.000000 0.000000 0.000000
vn 1.000000 0.000000 0.000000
vn 1.000000 0.000000 0.000000
vn -1.000000 0.000000 0.000000
vn -1.000000 0.000000 0.000000
vn -1.000000 0.000000 0.000000
vn -1.000000 0.000000 0.000000
vn -1.000000 0.000000 0.000000
vn -1.000000 0.000000 0.000000
vn -1.000000 0.000000 0.000000
vn -1.000000 0.000000 0.000000
vn -1.000000 0.000000 0.000000
vn -1.000000 0.000000 0.000000
vn -1.000000 0.000000 0.000000
vn -1.000000 0.000000 0.000000
vn -1.000000 0.000000 0.000000
vn -1.000000 0.000000 0.000000
vn -1.000000 0.000000 0.000000
vn -1.000000 0.000000 0.000000
vn -1.000000 0.000000 0.000000
vn -1.000000 0.000000 0.000000
vn -1.000000 0.000000 0.000000
vn -1.000000 0.000000 0.000000
vn -1.000000 0.000000 0.000000
vn -1.000000 0.000000 0.000000
vn -1.000000 0.000000 0.000000
vn -1.000000 0.000000 0.000000
vn -1.000000 0.000000 0.000000
vn -1.000000 0.000000 0.000000
vn -1.000000 0.000000 0.000000
vn -1.000000 0.000000 0.000000
vn -1.000000 0.000000 0.000000
vn -1.000000 0.000000 0.000000
vn -1.000000 0.000000 0.000000
vn -1.000000 0.000000 0.000000
vn -1.000000 0.000000 0.000000
vn -1.000000 0.000000 0.000000
vn -1.000000 0.000000 0.000000
vn -1.000000 0.000000 0.000000
vn -1.000000 0.000000 0.000000
vn -1.000000 0.000000 0.000000
vn -1.000000 0.000000 0.000000
vn -1.000000 0.000000 0.000000
vn -1.000000 0.000000 0.000000
vn -1.000000 0.000000 0.000000
vn -1.000000 0.000000 0.000000
vn -1.000000 0.000000 0.000000
vn -1.000000 0.000000 0.000000
vn -1.000000 0.000000 0.000000
vn -1.000000 0.000000 0.000000
vn -1.000000 0.000000 0.000000
vn -1.000000 0.000000 0.000000
vn -1.000000 0.000000 0.000000
vn -1.000000 0.000000 0.000000
vn -1.000000 0.000000 0.000000
s off
g polySurface114
usemtl phong2SG
f 1/1/1 2/2/2 3/3/3
f 4/4/4 5/5/5 6/6/6
f 7/7/7 8/8/8 9/9/9
f 10/10/10 11/11/11 12/12/12
f 13/13/13 14/14/14 15/15/15
f 16/16/16 17/17/17 18/18/18
f 19/19/19 20/20/20 21/21/21
f 22/22/22 23/23/23 24/24/24
f 25/25/25 26/26/26 27/27/27
f 28/28/28 29/29/29 30/30/30
f 31/31/31 32/32/32 33/33/33
f 34/34/34 35/35/35 36/36/36
f 37/37/37 38/38/38 39/39/39
f 40/40/40 41/41/41 42/42/42
f 43/43/43 44/44/44 45/45/45
f 46/46/46 47/47/47 48/48/48
f 49/49/49 50/50/50 51/51/51
f 52/52/52 53/53/53 54/54/54
f 55/55/55 56/56/56 57/57/57
f 58/58/58 59/59/59 60/60/60
f 61/61/61 62/62/62 63/63/63
f 64/64/64 65/65/65 66/66/66
f 67/67/67 68/68/68 69/69/69
f 70/70/70 71/71/71 72/72/72
f 73/73/73 74/74/74 75/75/75
f 76/76/76 77/77/77 78/78/78
f 79/79/79 80/80/80 81/81/81
f 82/82/82 83/83/83 84/84/84
f 85/85/85 86/86/86 87/87/87
f 88/88/88 89/89/89 90/90/90
f 91/91/91 92/92/92 93/93/93
f 94/94/94 95/95/95 96/96/96
f 97/97/97 98/98/98 99/99/99
f 100/100/100 101/101/101 102/102/102
f 103/103/103 104/104/104 105/105/105
f 106/106/106 107/107/107 108/108/108
f 109/109/109 110/110/110 111/111/111
f 112/112/112 113/113/113 114/114/114
f 115/115/115 116/116/116 117/117/117
f 118/118/118 119/119/119 120/120/120
f 121/121/121 122/122/122 123/123/123
f 124/124/124 125/125/125 126/126/126
f 127/127/127 128/128/128 129/129/129
f 130/130/130 131/131/131 132/132/132
f 133/133/133 134/134/134 135/135/135
f 136/136/136 137/137/137 138/138/138
f 139/139/139 140/140/140 141/141/141
f 142/142/142 143/143/143 144/144/144
usemtl phong3SG
f 145/145/145 146/146/146 148/147/147 147/148/148
f 147/148/149 148/147/150 150/149/151 149/150/152
f 149/150/153 150/149/154 152/151/155 151/152/156
f 151/152/157 152/151/158 146/153/159 145/154/160
f 146/146/161 152/155/162 150/156/163 148/147/164
f 151/157/165 145/145/166 147/148/167 149/158/168
usemtl phong2SG
f 153/159/169 154/160/170 155/161/171
f 156/162/172 157/163/173 158/164/174
f 159/165/175 160/166/176 161/167/177
f 162/168/178 163/169/179 164/170/180
f 165/171/181 166/172/182 167/173/183
f 168/174/184 169/175/185 170/176/186
f 171/177/187 172/178/188 173/179/189
f 174/180/190 175/181/191 176/182/192
f 177/183/193 178/184/194 179/185/195
f 180/186/196 181/187/197 182/188/198
f 183/189/199 184/190/200 185/191/201
f 186/192/202 187/193/203 188/194/204
f 189/195/205 190/196/206 191/197/207
f 192/198/208 193/199/209 194/200/210
f 195/201/211 196/202/212 197/203/213
f 198/204/214 199/205/215 200/206/216
