# This file uses centimeters as units for non-parametric coordinates.

mtllib CloudV1.mtl
g default
v -8.712831 -0.250000 0.903501
v -6.583340 -0.250000 0.903501
v -8.712831 0.250000 0.903501
v -6.583340 0.250000 0.903501
v -8.712831 0.250000 -1.387314
v -6.583340 0.250000 -1.387314
v -8.712831 -0.250000 -1.387314
v -6.583340 -0.250000 -1.387314
v -7.181410 -0.250000 0.903501
v -6.751474 -0.250000 0.903501
v -6.751474 0.250000 0.903501
v -7.181410 0.250000 0.903501
v -7.181410 -0.250000 1.362959
v -6.751474 -0.250000 1.362959
v -6.751474 0.250000 1.362959
v -7.181410 0.250000 1.362959
v -8.681749 -0.250000 0.903501
v -8.681749 0.250000 0.903501
v -7.517027 -0.250000 0.903501
v -7.517027 0.250000 0.903501
v -8.681749 -0.250000 1.811526
v -8.681749 0.250000 1.811526
v -7.517027 -0.250000 1.811526
v -7.517027 0.250000 1.811526
v -8.259462 -0.250000 1.811526
v -8.259462 0.250000 1.811526
v -7.545626 -0.250000 1.811526
v -7.545626 0.250000 1.811526
v -8.259462 -0.250000 2.220403
v -8.259462 0.250000 2.220403
v -7.545626 -0.250000 2.220403
v -7.545626 0.250000 2.220403
v -7.974300 0.250000 -1.387314
v -6.598901 0.250000 -1.387314
v -6.598901 -0.250000 -1.387314
v -7.974300 -0.250000 -1.387314
v -7.974300 0.250000 -2.150540
v -6.598901 0.250000 -2.150540
v -6.598901 -0.250000 -2.150540
v -7.974300 -0.250000 -2.150540
v -7.572998 0.250000 -2.150540
v -7.000202 0.250000 -2.150540
v -7.000202 -0.250000 -2.150540
v -7.572998 -0.250000 -2.150540
v -7.572998 0.250000 -2.718066
v -7.000202 0.250000 -2.718066
v -7.000202 -0.250000 -2.718066
v -7.572998 -0.250000 -2.718066
v -6.583340 -0.250000 -1.184183
v -6.583340 -0.250000 0.700369
v -6.583340 0.250000 -1.184183
v -6.583340 0.250000 0.700369
v -6.150982 -0.250000 -1.184183
v -6.150982 -0.250000 0.700369
v -6.150982 0.250000 -1.184183
v -6.150982 0.250000 0.700369
v -6.150982 -0.250000 -1.165841
v -6.150982 -0.250000 -0.086576
v -6.150982 0.250000 -1.165841
v -6.150982 0.250000 -0.086576
v -5.299280 -0.250000 -1.165841
v -5.299280 -0.250000 -0.086576
v -5.299280 0.250000 -1.165841
v -5.299280 0.250000 -0.086576
v -5.969412 -0.250000 -0.086576
v -5.969412 0.250000 -0.086576
v -5.480850 -0.250000 -0.086576
v -5.480850 0.250000 -0.086576
v -5.969412 -0.250000 0.347393
v -5.969412 0.250000 0.347393
v -5.480850 -0.250000 0.347393
v -5.480850 0.250000 0.347393
v -5.687390 0.250000 -1.165841
v -5.687390 -0.250000 -1.165841
v -5.379423 0.250000 -1.165841
v -5.379423 -0.250000 -1.165841
v -5.687390 0.250000 -1.605702
v -5.687390 -0.250000 -1.605702
v -5.379423 0.250000 -1.605702
v -5.379423 -0.250000 -1.605702
v -8.712831 -0.250000 -0.596551
v -8.712831 -0.250000 0.112738
v -8.712831 0.250000 0.112738
v -8.712831 0.250000 -0.596551
v -9.164511 -0.250000 -0.596551
v -9.164511 -0.250000 0.112738
v -9.164511 0.250000 0.112738
v -9.164511 0.250000 -0.596551
vt 0.375000 0.000000
vt 0.625000 0.000000
vt 0.375000 0.250000
vt 0.625000 0.250000
vt 0.375000 0.500000
vt 0.625000 0.500000
vt 0.375000 0.750000
vt 0.625000 0.750000
vt 0.375000 1.000000
vt 0.625000 1.000000
vt 0.875000 0.000000
vt 0.875000 0.250000
vt 0.125000 0.000000
vt 0.125000 0.250000
vt 0.375000 0.000000
vt 0.625000 0.000000
vt 0.625000 0.250000
vt 0.375000 0.250000
vt 0.375000 0.000000
vt 0.625000 0.000000
vt 0.625000 0.250000
vt 0.375000 0.250000
vt 0.375000 0.250000
vt 0.375000 0.000000
vt 0.375000 0.000000
vt 0.375000 0.250000
vt 0.375000 0.250000
vt 0.375000 0.000000
vt 0.375000 0.000000
vt 0.375000 0.250000
vt 0.375000 0.250000
vt 0.375000 0.000000
vt 0.375000 0.000000
vt 0.375000 0.250000
vt 0.375000 0.250000
vt 0.375000 0.000000
vt 0.375000 0.000000
vt 0.375000 0.250000
vt 0.375000 0.500000
vt 0.625000 0.500000
vt 0.625000 0.750000
vt 0.375000 0.750000
vt 0.375000 0.500000
vt 0.625000 0.500000
vt 0.625000 0.750000
vt 0.375000 0.750000
vt 0.375000 0.500000
vt 0.625000 0.500000
vt 0.625000 0.750000
vt 0.375000 0.750000
vt 0.375000 0.500000
vt 0.625000 0.500000
vt 0.625000 0.750000
vt 0.375000 0.750000
vt 0.625000 0.000000
vt 0.875000 0.000000
vt 0.875000 0.250000
vt 0.625000 0.250000
vt 0.625000 0.000000
vt 0.875000 0.000000
vt 0.875000 0.250000
vt 0.625000 0.250000
vt 0.625000 0.000000
vt 0.875000 0.000000
vt 0.875000 0.250000
vt 0.625000 0.250000
vt 0.625000 0.000000
vt 0.875000 0.000000
vt 0.875000 0.250000
vt 0.625000 0.250000
vt 0.625000 0.250000
vt 0.625000 0.000000
vt 0.625000 0.000000
vt 0.625000 0.250000
vt 0.625000 0.250000
vt 0.625000 0.000000
vt 0.625000 0.000000
vt 0.625000 0.250000
vt 0.875000 0.000000
vt 0.875000 0.250000
vt 0.875000 0.250000
vt 0.875000 0.000000
vt 0.875000 0.000000
vt 0.875000 0.250000
vt 0.875000 0.250000
vt 0.875000 0.000000
vt 0.125000 0.000000
vt 0.375000 0.000000
vt 0.375000 0.250000
vt 0.125000 0.250000
vt 0.125000 0.000000
vt 0.375000 0.000000
vt 0.375000 0.250000
vt 0.125000 0.250000
vn 0.000000 0.000000 1.000000
vn 0.000000 0.000000 1.000000
vn 0.000000 0.000000 1.000000
vn 0.000000 0.000000 1.000000
vn 0.000000 1.000000 0.000000
vn 0.000000 1.000000 0.000000
vn 0.000000 1.000000 0.000000
vn 0.000000 1.000000 0.000000
vn 0.000000 0.000000 -1.000000
vn 0.000000 0.000000 -1.000000
vn 0.000000 0.000000 -1.000000
vn 0.000000 0.000000 -1.000000
vn 0.000000 -1.000000 0.000000
vn 0.000000 -1.000000 0.000000
vn 0.000000 -1.000000 0.000000
vn 0.000000 -1.000000 0.000000
vn 1.000000 0.000000 0.000000
vn 1.000000 0.000000 0.000000
vn 1.000000 0.000000 0.000000
vn 1.000000 0.000000 0.000000
vn -1.000000 0.000000 0.000000
vn -1.000000 0.000000 0.000000
vn -1.000000 0.000000 0.000000
vn -1.000000 0.000000 0.000000
vn 0.000000 0.000000 0.000000
vn 0.000000 0.000000 0.000000
vn 0.000000 0.000000 0.000000
vn 0.000000 0.000000 0.000000
vn 0.000000 0.000000 1.000000
vn 0.000000 0.000000 1.000000
vn 0.000000 0.000000 1.000000
vn 0.000000 0.000000 1.000000
vn 0.000000 0.000000 0.000000
vn 0.000000 0.000000 0.000000
vn 0.000000 0.000000 0.000000
vn 0.000000 0.000000 0.000000
vn 0.000000 0.000000 1.000000
vn 0.000000 0.000000 1.000000
vn 0.000000 0.000000 1.000000
vn 0.000000 0.000000 1.000000
vn 0.000000 -1.000000 0.000000
vn 0.000000 -1.000000 0.000000
vn 0.000000 -1.000000 0.000000
vn 0.000000 -1.000000 0.000000
vn 1.000000 0.000000 0.000000
vn 1.000000 0.000000 0.000000
vn 1.000000 0.000000 0.000000
vn 1.000000 0.000000 0.000000
vn 0.000000 1.000000 0.000000
vn 0.000000 1.000000 0.000000
vn 0.000000 1.000000 0.000000
vn 0.000000 1.000000 0.000000
vn -1.000000 0.000000 0.000000
vn -1.000000 0.000000 0.000000
vn -1.000000 0.000000 0.000000
vn -1.000000 0.000000 0.000000
vn 0.000000 0.000000 1.000000
vn 0.000000 0.000000 1.000000
vn 0.000000 0.000000 1.000000
vn 0.000000 0.000000 1.000000
vn 0.000000 0.000000 0.000000
vn 0.000000 0.000000 0.000000
vn 0.000000 0.000000 0.000000
vn 0.000000 0.000000 0.000000
vn 0.000000 0.000000 1.000000
vn 0.000000 0.000000 1.000000
vn 0.000000 0.000000 1.000000
vn 0.000000 0.000000 1.000000
vn 0.000000 0.000000 0.000000
vn 0.000000 0.000000 0.000000
vn 0.000000 0.000000 0.000000
vn 0.000000 0.000000 0.000000
vn -1.000000 0.000000 0.000000
vn -1.000000 0.000000 0.000000
vn -1.000000 0.000000 0.000000
vn -1.000000 0.000000 0.000000
vn 0.000000 -1.000000 0.000000
vn 0.000000 -1.000000 0.000000
vn 0.000000 -1.000000 0.000000
vn 0.000000 -1.000000 0.000000
vn 1.000000 0.000000 0.000000
vn 1.000000 0.000000 0.000000
vn 1.000000 0.000000 0.000000
vn 1.000000 0.000000 0.000000
vn 0.000000 1.000000 0.000000
vn 0.000000 1.000000 0.000000
vn 0.000000 1.000000 0.000000
vn 0.000000 1.000000 0.000000
vn 0.000000 0.000000 1.000000
vn 0.000000 0.000000 1.000000
vn 0.000000 0.000000 1.000000
vn 0.000000 0.000000 1.000000
vn 0.000000 0.000000 0.000000
vn 0.000000 0.000000 0.000000
vn 0.000000 0.000000 0.000000
vn 0.000000 0.000000 0.000000
vn 0.000000 0.000000 1.000000
vn 0.000000 0.000000 1.000000
vn 0.000000 0.000000 1.000000
vn 0.000000 0.000000 1.000000
vn 0.000000 0.000000 0.000000
vn 0.000000 0.000000 0.000000
vn 0.000000 0.000000 0.000000
vn 0.000000 0.000000 0.000000
vn -1.000000 0.000000 0.000000
vn -1.000000 0.000000 0.000000
vn -1.000000 0.000000 0.000000
vn -1.000000 0.000000 0.000000
vn 0.000000 -1.000000 0.000000
vn 0.000000 -1.000000 0.000000
vn 0.000000 -1.000000 0.000000
vn 0.000000 -1.000000 0.000000
vn 1.000000 0.000000 0.000000
vn 1.000000 0.000000 0.000000
vn 1.000000 0.000000 0.000000
vn 1.000000 0.000000 0.000000
vn 0.000000 1.000000 0.000000
vn 0.000000 1.000000 0.000000
vn 0.000000 1.000000 0.000000
vn 0.000000 1.000000 0.000000
vn 0.000000 0.000000 0.000000
vn 0.000000 0.000000 0.000000
vn 0.000000 0.000000 0.000000
vn 0.000000 0.000000 0.000000
vn 0.000000 0.000000 -1.000000
vn 0.000000 0.000000 -1.000000
vn 0.000000 0.000000 -1.000000
vn 0.000000 0.000000 -1.000000
vn 0.000000 0.000000 0.000000
vn 0.000000 0.000000 0.000000
vn 0.000000 0.000000 1.000000
vn 0.000000 0.000000 1.000000
vn 0.000000 0.000000 -1.000000
vn 0.000000 0.000000 -1.000000
vn 0.000000 0.000000 -1.000000
vn 0.000000 0.000000 -1.000000
vn 0.000000 1.000000 0.000000
vn 0.000000 1.000000 0.000000
vn 0.000000 1.000000 0.000000
vn 0.000000 1.000000 0.000000
vn 1.000000 0.000000 0.000000
vn 1.000000 0.000000 0.000000
vn 1.000000 0.000000 0.000000
vn 1.000000 0.000000 0.000000
vn 0.000000 -1.000000 0.000000
vn 0.000000 -1.000000 0.000000
vn 0.000000 -1.000000 0.000000
vn 0.000000 -1.000000 0.000000
vn -1.000000 0.000000 0.000000
vn -1.000000 0.000000 0.000000
vn -1.000000 0.000000 0.000000
vn -1.000000 0.000000 0.000000
vn 0.000000 0.000000 -1.000000
vn 0.000000 0.000000 -1.000000
vn 0.000000 0.000000 -1.000000
vn 0.000000 0.000000 -1.000000
vn 0.000000 0.000000 -1.000000
vn 0.000000 0.000000 -1.000000
vn 0.000000 0.000000 -1.000000
vn 0.000000 0.000000 -1.000000
vn 0.000000 1.000000 0.000000
vn 0.000000 1.000000 0.000000
vn 0.000000 1.000000 0.000000
vn 0.000000 1.000000 0.000000
vn 1.000000 0.000000 0.000000
vn 1.000000 0.000000 0.000000
vn 1.000000 0.000000 0.000000
vn 1.000000 0.000000 0.000000
vn 0.000000 -1.000000 0.000000
vn 0.000000 -1.000000 0.000000
vn 0.000000 -1.000000 0.000000
vn 0.000000 -1.000000 0.000000
vn -1.000000 0.000000 0.000000
vn -1.000000 0.000000 0.000000
vn -1.000000 0.000000 0.000000
vn -1.000000 0.000000 0.000000
vn 0.000000 0.000000 0.000000
vn 0.000000 0.000000 0.000000
vn 0.000000 0.000000 0.000000
vn 0.000000 0.000000 0.000000
vn 1.000000 0.000000 0.000000
vn 1.000000 0.000000 0.000000
vn 1.000000 0.000000 0.000000
vn 1.000000 0.000000 0.000000
vn 0.000000 0.000000 0.000000
vn 0.000000 0.000000 0.000000
vn 0.000000 0.000000 0.000000
vn 0.000000 0.000000 0.000000
vn 1.000000 0.000000 0.000000
vn 1.000000 0.000000 0.000000
vn 1.000000 0.000000 0.000000
vn 1.000000 0.000000 0.000000
vn 0.000000 -1.000000 0.000000
vn 0.000000 -1.000000 0.000000
vn 0.000000 -1.000000 0.000000
vn 0.000000 -1.000000 0.000000
vn 0.000000 0.000000 -1.000000
vn 0.000000 0.000000 -1.000000
vn 0.000000 0.000000 -1.000000
vn 0.000000 0.000000 -1.000000
vn 0.000000 1.000000 0.000000
vn 0.000000 1.000000 0.000000
vn 0.000000 1.000000 0.000000
vn 0.000000 1.000000 0.000000
vn 0.000000 0.000000 1.000000
vn 0.000000 0.000000 1.000000
vn 0.000000 0.000000 1.000000
vn 0.000000 0.000000 1.000000
vn 0.000000 -1.000000 0.000000
vn 0.000000 -1.000000 0.000000
vn 1.000000 0.000000 0.000000
vn 1.000000 0.000000 0.000000
vn 1.000000 0.000000 0.000000
vn 1.000000 0.000000 0.000000
vn 0.000000 1.000000 0.000000
vn 0.000000 1.000000 0.000000
vn 1.000000 0.000000 0.000000
vn 1.000000 0.000000 0.000000
vn 1.000000 0.000000 0.000000
vn 1.000000 0.000000 0.000000
vn 0.000000 -1.000000 0.000000
vn 0.000000 -1.000000 0.000000
vn 0.000000 0.000000 -1.000000
vn 0.000000 0.000000 -1.000000
vn 0.000000 0.000000 -1.000000
vn 0.000000 0.000000 -1.000000
vn 0.000000 1.000000 0.000000
vn 0.000000 1.000000 0.000000
vn 0.000000 0.000000 1.000000
vn 0.000000 0.000000 1.000000
vn 0.000000 0.000000 1.000000
vn 0.000000 0.000000 1.000000
vn 0.000000 0.000000 1.000000
vn 0.000000 0.000000 1.000000
vn 0.000000 0.000000 1.000000
vn 0.000000 0.000000 1.000000
vn 0.000000 0.000000 0.000000
vn 0.000000 0.000000 0.000000
vn 0.000000 0.000000 0.000000
vn 0.000000 0.000000 0.000000
vn 0.000000 0.000000 1.000000
vn 0.000000 0.000000 1.000000
vn 0.000000 0.000000 1.000000
vn 0.000000 0.000000 1.000000
vn 0.000000 0.000000 0.000000
vn 0.000000 0.000000 0.000000
vn 0.000000 0.000000 0.000000
vn 0.000000 0.000000 0.000000
vn -1.000000 0.000000 0.000000
vn -1.000000 0.000000 0.000000
vn -1.000000 0.000000 0.000000
vn -1.000000 0.000000 0.000000
vn 0.000000 -1.000000 0.000000
vn 0.000000 -1.000000 0.000000
vn 0.000000 -1.000000 0.000000
vn 0.000000 -1.000000 0.000000
vn 1.000000 0.000000 0.000000
vn 1.000000 0.000000 0.000000
vn 1.000000 0.000000 0.000000
vn 1.000000 0.000000 0.000000
vn 0.000000 1.000000 0.000000
vn 0.000000 1.000000 0.000000
vn 0.000000 1.000000 0.000000
vn 0.000000 1.000000 0.000000
vn 0.000000 0.000000 -1.000000
vn 0.000000 0.000000 -1.000000
vn 0.000000 0.000000 -1.000000
vn 0.000000 0.000000 -1.000000
vn 0.000000 0.000000 0.000000
vn 0.000000 0.000000 0.000000
vn 0.000000 0.000000 0.000000
vn 0.000000 0.000000 0.000000
vn 0.000000 0.000000 -1.000000
vn 0.000000 0.000000 -1.000000
vn 0.000000 0.000000 -1.000000
vn 0.000000 0.000000 -1.000000
vn 0.000000 0.000000 0.000000
vn 0.000000 0.000000 0.000000
vn 0.000000 0.000000 0.000000
vn 0.000000 0.000000 0.000000
vn -1.000000 0.000000 0.000000
vn -1.000000 0.000000 0.000000
vn -1.000000 0.000000 0.000000
vn -1.000000 0.000000 0.000000
vn 0.000000 1.000000 0.000000
vn 0.000000 1.000000 0.000000
vn 0.000000 1.000000 0.000000
vn 0.000000 1.000000 0.000000
vn 1.000000 0.000000 0.000000
vn 1.000000 0.000000 0.000000
vn 1.000000 0.000000 0.000000
vn 1.000000 0.000000 0.000000
vn 0.000000 -1.000000 0.000000
vn 0.000000 -1.000000 0.000000
vn 0.000000 -1.000000 0.000000
vn 0.000000 -1.000000 0.000000
vn 0.000000 -1.000000 0.000000
vn 0.000000 -1.000000 0.000000
vn -1.000000 0.000000 0.000000
vn -1.000000 0.000000 0.000000
vn -1.000000 0.000000 0.000000
vn -1.000000 0.000000 0.000000
vn 0.000000 1.000000 0.000000
vn 0.000000 1.000000 0.000000
vn -1.000000 0.000000 0.000000
vn -1.000000 0.000000 0.000000
vn -1.000000 0.000000 0.000000
vn -1.000000 0.000000 0.000000
vn 0.000000 -1.000000 0.000000
vn 0.000000 -1.000000 0.000000
vn 0.000000 0.000000 1.000000
vn 0.000000 0.000000 1.000000
vn 0.000000 0.000000 1.000000
vn 0.000000 0.000000 1.000000
vn 0.000000 1.000000 0.000000
vn 0.000000 1.000000 0.000000
vn 0.000000 0.000000 -1.000000
vn 0.000000 0.000000 -1.000000
vn 0.000000 0.000000 -1.000000
vn 0.000000 0.000000 -1.000000
s off
g pCube1
usemtl phong2SG
f 13/19/1 14/20/2 15/21/3 16/22/4
s 1
f 3/3/5 4/4/6 6/6/7 5/5/8
s off
f 45/51/9 46/52/10 47/53/11 48/54/12
s 2
f 7/7/13 8/8/14 2/10/15 1/9/16
s off
f 62/67/17 61/68/18 63/69/19 64/70/20
f 85/91/21 86/92/22 87/93/23 88/94/24
f 1/1/25 2/2/26 10/16/27 9/15/28
f 2/2/29 4/4/30 11/17/31 10/16/32
f 4/4/33 3/3/34 12/18/35 11/17/36
f 30/35/37 29/36/38 31/37/39 32/38/40
f 9/15/41 10/16/42 14/20/43 13/19/44
f 10/16/45 11/17/46 15/21/47 14/20/48
f 11/17/49 12/18/50 16/22/51 15/21/52
f 12/18/53 9/15/54 13/19/55 16/22/56
f 3/3/57 1/1/58 17/24/59 18/23/60
f 1/1/61 9/15/62 19/25/63 17/24/64
f 9/15/65 12/18/66 20/26/67 19/25/68
f 12/18/69 3/3/70 18/23/71 20/26/72
f 18/23/73 17/24/74 21/28/75 22/27/76
f 17/24/77 19/25/78 23/29/79 21/28/80
f 19/25/81 20/26/82 24/30/83 23/29/84
f 20/26/85 18/23/86 22/27/87 24/30/88
f 22/27/89 21/28/90 25/32/91 26/31/92
f 21/28/93 23/29/94 27/33/95 25/32/96
f 23/29/97 24/30/98 28/34/99 27/33/100
f 24/30/101 22/27/102 26/31/103 28/34/104
f 26/31/105 25/32/106 29/36/107 30/35/108
f 25/32/109 27/33/110 31/37/111 29/36/112
f 27/33/113 28/34/114 32/38/115 31/37/116
f 28/34/117 26/31/118 30/35/119 32/38/120
f 5/5/121 6/6/122 34/40/123 33/39/124
f 6/6/125 8/8/126 35/41/127 34/40/128
f 8/8/129 7/7/130 36/42/131 35/41/132
f 7/7/133 5/5/134 33/39/135 36/42/136
f 33/39/137 34/40/138 38/44/139 37/43/140
f 34/40/141 35/41/142 39/45/143 38/44/144
f 35/41/145 36/42/146 40/46/147 39/45/148
f 36/42/149 33/39/150 37/43/151 40/46/152
s 3
f 37/43/153 38/44/154 42/48/155 41/47/156
f 38/44/154 39/45/157 43/49/158 42/48/155
f 39/45/157 40/46/159 44/50/160 43/49/158
f 40/46/159 37/43/153 41/47/156 44/50/160
s off
f 41/47/161 42/48/162 46/52/163 45/51/164
f 42/48/165 43/49/166 47/53/167 46/52/168
f 43/49/169 44/50/170 48/54/171 47/53/172
f 44/50/173 41/47/174 45/51/175 48/54/176
f 2/2/177 8/11/178 49/56/179 50/55/180
f 8/11/181 6/12/182 51/57/183 49/56/184
f 6/12/185 4/4/186 52/58/187 51/57/188
f 4/4/189 2/2/190 50/55/191 52/58/192
s 4
f 50/55/193 49/56/194 53/60/195 54/59/196
s off
f 49/56/197 51/57/198 55/61/199 53/60/200
s 5
f 51/57/201 52/58/202 56/62/203 55/61/204
s off
f 52/58/205 50/55/206 54/59/207 56/62/208
s 4
f 54/59/196 53/60/195 57/64/209 58/63/210
s off
f 53/60/211 55/61/212 59/65/213 57/64/214
s 5
f 55/61/204 56/62/203 60/66/215 59/65/216
s off
f 56/62/217 54/59/218 58/63/219 60/66/220
s 4
f 58/63/210 57/64/209 61/68/221 62/67/222
s off
f 78/83/223 77/84/224 79/85/225 80/86/226
s 5
f 59/65/216 60/66/215 64/70/227 63/69/228
s off
f 70/75/229 69/76/230 71/77/231 72/78/232
f 60/66/233 58/63/234 65/72/235 66/71/236
f 58/63/237 62/67/238 67/73/239 65/72/240
f 62/67/241 64/70/242 68/74/243 67/73/244
f 64/70/245 60/66/246 66/71/247 68/74/248
f 66/71/249 65/72/250 69/76/251 70/75/252
f 65/72/253 67/73/254 71/77/255 69/76/256
f 67/73/257 68/74/258 72/78/259 71/77/260
f 68/74/261 66/71/262 70/75/263 72/78/264
f 57/64/265 59/65/266 73/80/267 74/79/268
f 59/65/269 63/69/270 75/81/271 73/80/272
f 63/69/273 61/68/274 76/82/275 75/81/276
f 61/68/277 57/64/278 74/79/279 76/82/280
f 74/79/281 73/80/282 77/84/283 78/83/284
f 73/80/285 75/81/286 79/85/287 77/84/288
f 75/81/289 76/82/290 80/86/291 79/85/292
f 76/82/293 74/79/294 78/83/295 80/86/296
s 2
f 7/13/13 1/1/16 82/88/297 81/87/298
s off
f 1/1/299 3/3/300 83/89/301 82/88/302
s 1
f 3/3/5 5/14/8 84/90/303 83/89/304
s off
f 5/14/305 7/13/306 81/87/307 84/90/308
s 2
f 81/87/298 82/88/297 86/92/309 85/91/310
s off
f 82/88/311 83/89/312 87/93/313 86/92/314
s 1
f 83/89/304 84/90/303 88/94/315 87/93/316
s off
f 84/90/317 81/87/318 85/91/319 88/94/320
