# This file uses centimeters as units for non-parametric coordinates.

mtllib CylinderV2.mtl
g default
v 0.465178 -0.003001 -0.151146
v 0.395704 -0.003001 -0.287496
v 0.287496 -0.003001 -0.395704
v 0.151145 -0.003001 -0.465178
v 0.000000 -0.003001 -0.489117
v -0.151145 -0.003001 -0.465178
v -0.287496 -0.003001 -0.395704
v -0.395704 -0.003001 -0.287496
v -0.465178 -0.003001 -0.151145
v -0.489117 -0.003001 0.000000
v -0.465178 -0.003001 0.151145
v -0.395704 -0.003001 0.287496
v -0.287496 -0.003001 0.395704
v -0.151145 -0.003001 0.465178
v -0.000000 -0.003001 0.489117
v 0.151145 -0.003001 0.465178
v 0.287496 -0.003001 0.395704
v 0.395704 -0.003001 0.287496
v 0.465178 -0.003001 0.151145
v 0.489117 -0.003001 0.000000
v 0.465178 0.114014 -0.151146
v 0.395704 0.114014 -0.287496
v 0.287496 0.114014 -0.395704
v 0.151145 0.114014 -0.465178
v 0.000000 0.114014 -0.489117
v -0.151145 0.114014 -0.465178
v -0.287496 0.114014 -0.395704
v -0.395704 0.114014 -0.287496
v -0.465178 0.114014 -0.151145
v -0.489117 0.114014 0.000000
v -0.465178 0.114014 0.151145
v -0.395704 0.114014 0.287496
v -0.287496 0.114014 0.395704
v -0.151145 0.114014 0.465178
v -0.000000 0.114014 0.489117
v 0.151145 0.114014 0.465178
v 0.287496 0.114014 0.395704
v 0.395704 0.114014 0.287496
v 0.465178 0.114014 0.151145
v 0.489117 0.114014 0.000000
v 0.000000 0.114014 0.000000
vt 0.375000 0.312500
vt 0.387500 0.312500
vt 0.400000 0.312500
vt 0.412500 0.312500
vt 0.425000 0.312500
vt 0.437500 0.312500
vt 0.450000 0.312500
vt 0.462500 0.312500
vt 0.475000 0.312500
vt 0.487500 0.312500
vt 0.500000 0.312500
vt 0.512500 0.312500
vt 0.525000 0.312500
vt 0.537500 0.312500
vt 0.550000 0.312500
vt 0.562500 0.312500
vt 0.575000 0.312500
vt 0.587500 0.312500
vt 0.600000 0.312500
vt 0.612500 0.312500
vt 0.625000 0.312500
vt 0.375000 0.688440
vt 0.387500 0.688440
vt 0.400000 0.688440
vt 0.412500 0.688440
vt 0.425000 0.688440
vt 0.437500 0.688440
vt 0.450000 0.688440
vt 0.462500 0.688440
vt 0.475000 0.688440
vt 0.487500 0.688440
vt 0.500000 0.688440
vt 0.512500 0.688440
vt 0.525000 0.688440
vt 0.537500 0.688440
vt 0.550000 0.688440
vt 0.562500 0.688440
vt 0.575000 0.688440
vt 0.587500 0.688440
vt 0.600000 0.688440
vt 0.612500 0.688440
vt 0.625000 0.688440
vt 0.648603 0.795466
vt 0.626409 0.751908
vt 0.591842 0.717341
vt 0.548284 0.695147
vt 0.500000 0.687500
vt 0.451716 0.695147
vt 0.408159 0.717341
vt 0.373591 0.751909
vt 0.351397 0.795466
vt 0.343750 0.843750
vt 0.351397 0.892034
vt 0.373591 0.935591
vt 0.408159 0.970159
vt 0.451716 0.992353
vt 0.500000 1.000000
vt 0.548284 0.992353
vt 0.591841 0.970159
vt 0.626409 0.935591
vt 0.648603 0.892034
vt 0.656250 0.843750
vt 0.500000 0.837500
vn 0.951057 0.000000 -0.309016
vn 0.809017 0.000000 -0.587785
vn 0.809017 0.000000 -0.587785
vn 0.951057 0.000000 -0.309016
vn 0.587785 0.000000 -0.809017
vn 0.587785 0.000000 -0.809017
vn 0.309017 0.000000 -0.951057
vn 0.309017 0.000000 -0.951057
vn -0.000000 0.000000 -1.000000
vn -0.000000 0.000000 -1.000000
vn -0.309017 0.000000 -0.951056
vn -0.309017 0.000000 -0.951056
vn -0.587785 0.000000 -0.809017
vn -0.587785 0.000000 -0.809017
vn -0.809017 0.000000 -0.587785
vn -0.809017 0.000000 -0.587785
vn -0.951056 0.000000 -0.309017
vn -0.951056 0.000000 -0.309017
vn -1.000000 0.000000 0.000000
vn -1.000000 0.000000 0.000000
vn -0.951057 0.000000 0.309017
vn -0.951057 0.000000 0.309017
vn -0.809017 0.000000 0.587785
vn -0.809017 0.000000 0.587785
vn -0.587785 0.000000 0.809017
vn -0.587785 0.000000 0.809017
vn -0.309017 0.000000 0.951057
vn -0.309017 0.000000 0.951057
vn 0.000000 0.000000 1.000000
vn 0.000000 0.000000 1.000000
vn 0.309017 0.000000 0.951056
vn 0.309017 0.000000 0.951056
vn 0.587785 0.000000 0.809017
vn 0.587785 0.000000 0.809017
vn 0.809017 0.000000 0.587785
vn 0.809017 0.000000 0.587785
vn 0.951056 0.000000 0.309017
vn 0.951056 0.000000 0.309017
vn 1.000000 0.000000 0.000001
vn 1.000000 0.000000 0.000001
vn 0.000000 1.000000 -0.000000
vn 0.000000 1.000000 0.000000
vn 0.000000 1.000000 -0.000000
vn 0.000000 1.000000 0.000000
vn 0.000000 1.000000 0.000000
vn 0.000000 1.000000 0.000000
vn 0.000000 1.000000 0.000000
vn 0.000000 1.000000 0.000000
vn 0.000000 1.000000 0.000000
vn 0.000000 1.000000 -0.000000
vn 0.000000 1.000000 0.000000
vn 0.000000 1.000000 0.000000
vn 0.000000 1.000000 0.000000
vn 0.000000 1.000000 0.000000
vn 0.000000 1.000000 0.000000
vn 0.000000 1.000000 -0.000000
vn 0.000000 1.000000 0.000000
vn 0.000000 1.000000 -0.000000
vn 0.000000 1.000000 0.000000
vn 0.000000 1.000000 0.000000
vn 0.000000 1.000000 -0.000000
s 1
g pCylinder1
usemtl phong2SG
f 1/1/1 2/2/2 22/23/3 21/22/4
f 2/2/2 3/3/5 23/24/6 22/23/3
f 3/3/5 4/4/7 24/25/8 23/24/6
f 4/4/7 5/5/9 25/26/10 24/25/8
f 5/5/9 6/6/11 26/27/12 25/26/10
f 6/6/11 7/7/13 27/28/14 26/27/12
f 7/7/13 8/8/15 28/29/16 27/28/14
f 8/8/15 9/9/17 29/30/18 28/29/16
f 9/9/17 10/10/19 30/31/20 29/30/18
f 10/10/19 11/11/21 31/32/22 30/31/20
f 11/11/21 12/12/23 32/33/24 31/32/22
f 12/12/23 13/13/25 33/34/26 32/33/24
f 13/13/25 14/14/27 34/35/28 33/34/26
f 14/14/27 15/15/29 35/36/30 34/35/28
f 15/15/29 16/16/31 36/37/32 35/36/30
f 16/16/31 17/17/33 37/38/34 36/37/32
f 17/17/33 18/18/35 38/39/36 37/38/34
f 18/18/35 19/19/37 39/40/38 38/39/36
f 19/19/37 20/20/39 40/41/40 39/40/38
f 20/20/39 1/21/1 21/42/4 40/41/40
s 2
f 21/61/41 22/60/42 41/63/43
f 22/60/42 23/59/44 41/63/43
f 23/59/44 24/58/45 41/63/43
f 24/58/45 25/57/46 41/63/43
f 25/57/46 26/56/47 41/63/43
f 26/56/47 27/55/48 41/63/43
f 27/55/48 28/54/49 41/63/43
f 28/54/49 29/53/50 41/63/43
f 29/53/50 30/52/51 41/63/43
f 30/52/51 31/51/52 41/63/43
f 31/51/52 32/50/53 41/63/43
f 32/50/53 33/49/54 41/63/43
f 33/49/54 34/48/55 41/63/43
f 34/48/55 35/47/56 41/63/43
f 35/47/56 36/46/57 41/63/43
f 36/46/57 37/45/58 41/63/43
f 37/45/58 38/44/59 41/63/43
f 38/44/59 39/43/60 41/63/43
f 39/43/60 40/62/61 41/63/43
f 40/62/61 21/61/41 41/63/43
