# This file uses centimeters as units for non-parametric coordinates.

mtllib FencePostV1.mtl
g default
v -0.500000 -0.030606 0.500000
v 0.500000 -0.030606 0.500000
v 0.505183 1.091463 0.494763
v 0.494763 1.091463 -0.505183
v -0.494763 1.091464 0.505183
v -0.505183 1.091464 -0.494763
v -0.500000 -0.030606 -0.500000
v 0.500000 -0.030606 -0.500000
v 0.500915 2.091463 -0.499085
v -0.499084 2.091463 -0.500914
v -0.500914 2.091464 0.499085
v 0.499085 2.091464 0.500914
v -0.503065 3.091463 -0.496916
v -0.496916 3.091463 0.503065
v 0.503066 3.091464 0.496916
v 0.496916 3.091464 -0.503066
v -0.492288 4.091463 0.507595
v 0.507596 4.091463 0.492287
v 0.492288 4.091464 -0.507596
v -0.507596 4.091464 -0.492288
v 0.512365 5.091463 0.487322
v 0.487322 5.091463 -0.512365
v -0.512365 5.091464 -0.487321
v -0.487322 5.091464 0.512366
vt 0.375000 0.000000
vt 0.625000 0.000000
vt 0.375000 0.250000
vt 0.625000 0.250000
vt 0.375000 0.500000
vt 0.625000 0.500000
vt 0.375000 0.750000
vt 0.625000 0.750000
vt 0.375000 1.000000
vt 0.625000 1.000000
vt 0.875000 0.000000
vt 0.875000 0.250000
vt 0.125000 0.000000
vt 0.125000 0.250000
vt 0.375000 0.250000
vt 0.625000 0.250000
vt 0.625000 0.500000
vt 0.375000 0.500000
vt 0.375000 0.250000
vt 0.625000 0.250000
vt 0.625000 0.500000
vt 0.375000 0.500000
vt 0.375000 0.250000
vt 0.625000 0.250000
vt 0.625000 0.500000
vt 0.375000 0.500000
vt 0.375000 0.250000
vt 0.625000 0.250000
vt 0.625000 0.500000
vt 0.375000 0.500000
vn 0.710782 -0.000000 0.703413
vn 0.710782 -0.000000 0.703413
vn 0.710782 -0.000000 0.703413
vn 0.710782 -0.000000 0.703413
vn 0.000000 1.000000 0.000000
vn 0.000000 1.000000 0.000000
vn 0.000000 1.000000 0.000000
vn 0.000000 1.000000 0.000000
vn -0.710782 -0.000000 -0.703413
vn -0.710782 -0.000000 -0.703413
vn -0.710782 -0.000000 -0.703413
vn -0.710781 -0.000000 -0.703413
vn 0.000000 -1.000000 0.000000
vn 0.000000 -1.000000 0.000000
vn 0.000000 -1.000000 0.000000
vn 0.000000 -1.000000 0.000000
vn 0.703413 -0.000000 -0.710782
vn 0.703413 -0.000000 -0.710782
vn 0.703413 -0.000000 -0.710782
vn 0.703413 -0.000000 -0.710782
vn -0.703413 -0.000000 0.710782
vn -0.703413 -0.000000 0.710782
vn -0.703413 -0.000000 0.710782
vn -0.703413 -0.000000 0.710782
vn 0.704063 -0.000000 -0.710138
vn 0.704063 -0.000000 -0.710138
vn 0.704063 -0.000000 -0.710138
vn 0.704063 -0.000000 -0.710138
vn -0.710138 0.000000 -0.704063
vn -0.710138 0.000000 -0.704063
vn -0.710137 0.000000 -0.704063
vn -0.710137 0.000000 -0.704063
vn -0.704063 0.000000 0.710138
vn -0.704063 0.000000 0.710137
vn -0.704063 0.000000 0.710138
vn -0.704063 0.000000 0.710137
vn 0.710137 -0.000000 0.704063
vn 0.710137 -0.000000 0.704063
vn 0.710137 -0.000000 0.704063
vn 0.710137 -0.000000 0.704063
vn -0.708632 -0.000000 -0.705578
vn -0.708633 -0.000000 -0.705578
vn -0.708633 -0.000000 -0.705578
vn -0.708633 -0.000000 -0.705578
vn -0.705578 0.000000 0.708632
vn -0.705578 0.000000 0.708632
vn -0.705578 0.000000 0.708632
vn -0.705578 0.000000 0.708632
vn 0.708632 0.000001 0.705578
vn 0.708632 0.000001 0.705578
vn 0.708632 0.000001 0.705578
vn 0.708632 0.000001 0.705578
vn 0.705578 0.000000 -0.708632
vn 0.705578 0.000000 -0.708632
vn 0.705578 0.000000 -0.708632
vn 0.705578 0.000000 -0.708632
vn -0.699479 -0.000000 0.714653
vn -0.699479 -0.000000 0.714653
vn -0.699479 -0.000000 0.714653
vn -0.699479 -0.000000 0.714653
vn 0.714653 -0.000000 0.699479
vn 0.714653 -0.000000 0.699479
vn 0.714653 -0.000000 0.699479
vn 0.714653 -0.000000 0.699479
vn 0.699479 -0.000000 -0.714653
vn 0.699479 -0.000000 -0.714653
vn 0.699479 -0.000000 -0.714653
vn 0.699479 -0.000000 -0.714653
vn -0.714653 -0.000001 -0.699480
vn -0.714653 -0.000001 -0.699480
vn -0.714653 -0.000001 -0.699480
vn -0.714653 -0.000001 -0.699480
vn 0.721229 -0.000001 0.692696
vn 0.721229 -0.000001 0.692696
vn 0.721229 -0.000001 0.692696
vn 0.721229 -0.000001 0.692696
vn 0.692697 0.000001 -0.721229
vn 0.692697 0.000001 -0.721229
vn 0.692697 0.000001 -0.721229
vn 0.692697 0.000001 -0.721229
vn -0.721229 0.000000 -0.692696
vn -0.721229 0.000000 -0.692696
vn -0.721229 0.000000 -0.692696
vn -0.721229 0.000000 -0.692696
vn -0.692697 -0.000001 0.721229
vn -0.692697 -0.000001 0.721229
vn -0.692697 -0.000001 0.721229
vn -0.692697 -0.000001 0.721229
s off
g pCube10
usemtl phong3SG
f 1/1/1 2/2/2 4/4/3 3/3/4
f 21/27/5 22/28/6 23/29/7 24/30/8
f 5/5/9 6/6/10 8/8/11 7/7/12
f 7/7/13 8/8/14 2/10/15 1/9/16
f 2/2/17 8/11/18 6/12/19 4/4/20
f 7/13/21 1/1/22 3/3/23 5/14/24
f 3/3/25 4/4/26 10/16/27 9/15/28
f 4/4/29 6/6/30 11/17/31 10/16/32
f 6/6/33 5/5/34 12/18/35 11/17/36
f 5/5/37 3/3/38 9/15/39 12/18/40
f 9/15/41 10/16/42 14/20/43 13/19/44
f 10/16/45 11/17/46 15/21/47 14/20/48
f 11/17/49 12/18/50 16/22/51 15/21/52
f 12/18/53 9/15/54 13/19/55 16/22/56
f 13/19/57 14/20/58 18/24/59 17/23/60
f 14/20/61 15/21/62 19/25/63 18/24/64
f 15/21/65 16/22/66 20/26/67 19/25/68
f 16/22/69 13/19/70 17/23/71 20/26/72
f 17/23/73 18/24/74 22/28/75 21/27/76
f 18/24/77 19/25/78 23/29/79 22/28/80
f 19/25/81 20/26/82 24/30/83 23/29/84
f 20/26/85 17/23/86 21/27/87 24/30/88
