# This file uses centimeters as units for non-parametric coordinates.

mtllib TreeV1.mtl
g default
v -0.500000 -0.013867 0.500000
v 0.500000 -0.013867 0.500000
v -0.500000 3.354684 0.500000
v 0.500000 3.354684 0.500000
v -0.500000 3.354684 -0.500000
v 0.500000 3.354684 -0.500000
v -0.500000 -0.013867 -0.500000
v 0.500000 -0.013867 -0.500000
v -1.300904 5.440796 1.313395
v 1.300904 5.440796 1.313395
v 1.300904 5.440796 -1.313395
v -1.300904 5.440796 -1.313395
v -1.300904 3.354684 1.313395
v 1.300904 3.354684 1.313395
v 1.300904 3.354684 -1.313395
v -1.300904 3.354684 -1.313395
vt 0.375000 0.000000
vt 0.625000 0.000000
vt 0.375000 0.250000
vt 0.625000 0.250000
vt 0.375000 0.500000
vt 0.625000 0.500000
vt 0.375000 0.750000
vt 0.625000 0.750000
vt 0.375000 1.000000
vt 0.625000 1.000000
vt 0.875000 0.000000
vt 0.875000 0.250000
vt 0.125000 0.000000
vt 0.125000 0.250000
vt 0.375000 0.250000
vt 0.625000 0.250000
vt 0.625000 0.500000
vt 0.375000 0.500000
vt 0.375000 0.250000
vt 0.625000 0.250000
vt 0.625000 0.500000
vt 0.375000 0.500000
vn 0.000000 0.000000 1.000000
vn 0.000000 0.000000 1.000000
vn 0.000000 0.000000 1.000000
vn 0.000000 0.000000 1.000000
vn 0.000000 1.000000 0.000000
vn 0.000000 1.000000 0.000000
vn 0.000000 1.000000 0.000000
vn 0.000000 1.000000 0.000000
vn 0.000000 0.000000 -1.000000
vn 0.000000 0.000000 -1.000000
vn 0.000000 0.000000 -1.000000
vn 0.000000 0.000000 -1.000000
vn 0.000000 -1.000000 0.000000
vn 0.000000 -1.000000 0.000000
vn 0.000000 -1.000000 0.000000
vn 0.000000 -1.000000 0.000000
vn 1.000000 0.000000 0.000000
vn 1.000000 0.000000 0.000000
vn 1.000000 0.000000 0.000000
vn 1.000000 0.000000 0.000000
vn -1.000000 0.000000 0.000000
vn -1.000000 0.000000 0.000000
vn -1.000000 0.000000 0.000000
vn -1.000000 0.000000 0.000000
vn 0.000000 0.000000 1.000000
vn 0.000000 0.000000 1.000000
vn 0.000000 0.000000 1.000000
vn 0.000000 0.000000 1.000000
vn 1.000000 0.000000 0.000000
vn 1.000000 0.000000 0.000000
vn 1.000000 0.000000 0.000000
vn 1.000000 0.000000 0.000000
vn 0.000000 0.000000 -1.000000
vn 0.000000 0.000000 -1.000000
vn 0.000000 0.000000 -1.000000
vn 0.000000 0.000000 -1.000000
vn -1.000000 -0.000000 0.000000
vn -1.000000 -0.000000 0.000000
vn -1.000000 -0.000000 0.000000
vn -1.000000 -0.000000 0.000000
s off
g pCube1
usemtl phong3SG
f 1/1/1 2/2/2 4/4/3 3/3/4
usemtl phong2SG
f 9/15/5 10/16/6 11/17/7 12/18/8
usemtl phong3SG
f 5/5/9 6/6/10 8/8/11 7/7/12
f 7/7/13 8/8/14 2/10/15 1/9/16
f 2/2/17 8/11/18 6/12/19 4/4/20
f 7/13/21 1/1/22 3/3/23 5/14/24
usemtl phong2SG
f 13/19/25 14/20/26 10/16/27 9/15/28
f 14/20/29 15/21/30 11/17/31 10/16/32
f 15/21/33 16/22/34 12/18/35 11/17/36
f 16/22/37 13/19/38 9/15/39 12/18/40
